<svg width="213" height="151" fill="none" xmlns="http://www.w3.org/2000/svg"><g id="Group 54" fill="#EBEBEB"><g id="Group 38"><ellipse id="Ellipse 26" cx="1.773" cy="1.845" rx="1.773" ry="1.739"/><ellipse id="Ellipse 27" cx="12.755" cy="1.845" rx="1.773" ry="1.739"/><ellipse id="Ellipse 28" cx="23.737" cy="1.845" rx="1.773" ry="1.739"/><ellipse id="Ellipse 29" cx="34.72" cy="1.845" rx="1.773" ry="1.739"/><ellipse id="Ellipse 30" cx="45.702" cy="1.845" rx="1.773" ry="1.739"/><ellipse id="Ellipse 31" cx="56.684" cy="1.845" rx="1.773" ry="1.739"/><ellipse id="Ellipse 32" cx="67.667" cy="1.845" rx="1.773" ry="1.739"/><ellipse id="Ellipse 33" cx="78.649" cy="1.845" rx="1.773" ry="1.739"/><ellipse id="Ellipse 34" cx="89.631" cy="1.845" rx="1.773" ry="1.739"/><ellipse id="Ellipse 35" cx="100.613" cy="1.845" rx="1.773" ry="1.739"/><ellipse id="Ellipse 36" cx="111.596" cy="1.845" rx="1.773" ry="1.739"/><ellipse id="Ellipse 37" cx="122.578" cy="1.845" rx="1.773" ry="1.739"/><ellipse id="Ellipse 38" cx="133.56" cy="1.845" rx="1.773" ry="1.739"/><ellipse id="Ellipse 39" cx="144.543" cy="1.845" rx="1.773" ry="1.739"/><ellipse id="Ellipse 40" cx="155.525" cy="1.845" rx="1.773" ry="1.739"/><ellipse id="Ellipse 41" cx="166.507" cy="1.845" rx="1.773" ry="1.739"/><ellipse id="Ellipse 42" cx="177.489" cy="1.845" rx="1.773" ry="1.739"/><ellipse id="Ellipse 43" cx="188.472" cy="1.845" rx="1.773" ry="1.739"/><ellipse id="Ellipse 44" cx="199.454" cy="1.845" rx="1.773" ry="1.739"/><ellipse id="Ellipse 45" cx="210.436" cy="1.845" rx="1.773" ry="1.739"/></g><g id="Group 39"><ellipse id="Ellipse 26_2" cx="1.773" cy="11.641" rx="1.773" ry="1.739"/><ellipse id="Ellipse 27_2" cx="12.755" cy="11.641" rx="1.773" ry="1.739"/><ellipse id="Ellipse 28_2" cx="23.737" cy="11.641" rx="1.773" ry="1.739"/><ellipse id="Ellipse 29_2" cx="34.72" cy="11.641" rx="1.773" ry="1.739"/><ellipse id="Ellipse 30_2" cx="45.702" cy="11.641" rx="1.773" ry="1.739"/><ellipse id="Ellipse 31_2" cx="56.684" cy="11.641" rx="1.773" ry="1.739"/><ellipse id="Ellipse 32_2" cx="67.667" cy="11.641" rx="1.773" ry="1.739"/><ellipse id="Ellipse 33_2" cx="78.649" cy="11.641" rx="1.773" ry="1.739"/><ellipse id="Ellipse 34_2" cx="89.631" cy="11.641" rx="1.773" ry="1.739"/><ellipse id="Ellipse 35_2" cx="100.613" cy="11.641" rx="1.773" ry="1.739"/><ellipse id="Ellipse 36_2" cx="111.596" cy="11.641" rx="1.773" ry="1.739"/><ellipse id="Ellipse 37_2" cx="122.578" cy="11.641" rx="1.773" ry="1.739"/><ellipse id="Ellipse 38_2" cx="133.56" cy="11.641" rx="1.773" ry="1.739"/><ellipse id="Ellipse 39_2" cx="144.543" cy="11.641" rx="1.773" ry="1.739"/><ellipse id="Ellipse 40_2" cx="155.525" cy="11.641" rx="1.773" ry="1.739"/><ellipse id="Ellipse 41_2" cx="166.507" cy="11.641" rx="1.773" ry="1.739"/><ellipse id="Ellipse 42_2" cx="177.489" cy="11.641" rx="1.773" ry="1.739"/><ellipse id="Ellipse 43_2" cx="188.472" cy="11.641" rx="1.773" ry="1.739"/><ellipse id="Ellipse 44_2" cx="199.454" cy="11.641" rx="1.773" ry="1.739"/><ellipse id="Ellipse 45_2" cx="210.436" cy="11.641" rx="1.773" ry="1.739"/></g><g id="Group 40"><ellipse id="Ellipse 26_3" cx="1.773" cy="21.437" rx="1.773" ry="1.739"/><ellipse id="Ellipse 27_3" cx="12.755" cy="21.437" rx="1.773" ry="1.739"/><ellipse id="Ellipse 28_3" cx="23.737" cy="21.437" rx="1.773" ry="1.739"/><ellipse id="Ellipse 29_3" cx="34.72" cy="21.437" rx="1.773" ry="1.739"/><ellipse id="Ellipse 30_3" cx="45.702" cy="21.437" rx="1.773" ry="1.739"/><ellipse id="Ellipse 31_3" cx="56.684" cy="21.437" rx="1.773" ry="1.739"/><ellipse id="Ellipse 32_3" cx="67.667" cy="21.437" rx="1.773" ry="1.739"/><ellipse id="Ellipse 33_3" cx="78.649" cy="21.437" rx="1.773" ry="1.739"/><ellipse id="Ellipse 34_3" cx="89.631" cy="21.437" rx="1.773" ry="1.739"/><ellipse id="Ellipse 35_3" cx="100.613" cy="21.437" rx="1.773" ry="1.739"/><ellipse id="Ellipse 36_3" cx="111.596" cy="21.437" rx="1.773" ry="1.739"/><ellipse id="Ellipse 37_3" cx="122.578" cy="21.437" rx="1.773" ry="1.739"/><ellipse id="Ellipse 38_3" cx="133.56" cy="21.437" rx="1.773" ry="1.739"/><ellipse id="Ellipse 39_3" cx="144.543" cy="21.437" rx="1.773" ry="1.739"/><ellipse id="Ellipse 40_3" cx="155.525" cy="21.437" rx="1.773" ry="1.739"/><ellipse id="Ellipse 41_3" cx="166.507" cy="21.437" rx="1.773" ry="1.739"/><ellipse id="Ellipse 42_3" cx="177.489" cy="21.437" rx="1.773" ry="1.739"/><ellipse id="Ellipse 43_3" cx="188.472" cy="21.437" rx="1.773" ry="1.739"/><ellipse id="Ellipse 44_3" cx="199.454" cy="21.437" rx="1.773" ry="1.739"/><ellipse id="Ellipse 45_3" cx="210.436" cy="21.437" rx="1.773" ry="1.739"/></g><g id="Group 41"><ellipse id="Ellipse 26_4" cx="1.773" cy="31.233" rx="1.773" ry="1.739"/><ellipse id="Ellipse 27_4" cx="12.755" cy="31.233" rx="1.773" ry="1.739"/><ellipse id="Ellipse 28_4" cx="23.737" cy="31.233" rx="1.773" ry="1.739"/><ellipse id="Ellipse 29_4" cx="34.72" cy="31.233" rx="1.773" ry="1.739"/><ellipse id="Ellipse 30_4" cx="45.702" cy="31.233" rx="1.773" ry="1.739"/><ellipse id="Ellipse 31_4" cx="56.684" cy="31.233" rx="1.773" ry="1.739"/><ellipse id="Ellipse 32_4" cx="67.667" cy="31.233" rx="1.773" ry="1.739"/><ellipse id="Ellipse 33_4" cx="78.649" cy="31.233" rx="1.773" ry="1.739"/><ellipse id="Ellipse 34_4" cx="89.631" cy="31.233" rx="1.773" ry="1.739"/><ellipse id="Ellipse 35_4" cx="100.613" cy="31.233" rx="1.773" ry="1.739"/><ellipse id="Ellipse 36_4" cx="111.596" cy="31.233" rx="1.773" ry="1.739"/><ellipse id="Ellipse 37_4" cx="122.578" cy="31.233" rx="1.773" ry="1.739"/><ellipse id="Ellipse 38_4" cx="133.56" cy="31.233" rx="1.773" ry="1.739"/><ellipse id="Ellipse 39_4" cx="144.543" cy="31.233" rx="1.773" ry="1.739"/><ellipse id="Ellipse 40_4" cx="155.525" cy="31.233" rx="1.773" ry="1.739"/><ellipse id="Ellipse 41_4" cx="166.507" cy="31.233" rx="1.773" ry="1.739"/><ellipse id="Ellipse 42_4" cx="177.489" cy="31.233" rx="1.773" ry="1.739"/><ellipse id="Ellipse 43_4" cx="188.472" cy="31.233" rx="1.773" ry="1.739"/><ellipse id="Ellipse 44_4" cx="199.454" cy="31.233" rx="1.773" ry="1.739"/><ellipse id="Ellipse 45_4" cx="210.436" cy="31.233" rx="1.773" ry="1.739"/></g><g id="Group 42"><ellipse id="Ellipse 26_5" cx="1.773" cy="41.029" rx="1.773" ry="1.739"/><ellipse id="Ellipse 27_5" cx="12.755" cy="41.029" rx="1.773" ry="1.739"/><ellipse id="Ellipse 28_5" cx="23.737" cy="41.029" rx="1.773" ry="1.739"/><ellipse id="Ellipse 29_5" cx="34.72" cy="41.029" rx="1.773" ry="1.739"/><ellipse id="Ellipse 30_5" cx="45.702" cy="41.029" rx="1.773" ry="1.739"/><ellipse id="Ellipse 31_5" cx="56.684" cy="41.029" rx="1.773" ry="1.739"/><ellipse id="Ellipse 32_5" cx="67.667" cy="41.029" rx="1.773" ry="1.739"/><ellipse id="Ellipse 33_5" cx="78.649" cy="41.029" rx="1.773" ry="1.739"/><ellipse id="Ellipse 34_5" cx="89.631" cy="41.029" rx="1.773" ry="1.739"/><ellipse id="Ellipse 35_5" cx="100.613" cy="41.029" rx="1.773" ry="1.739"/><ellipse id="Ellipse 36_5" cx="111.596" cy="41.029" rx="1.773" ry="1.739"/><ellipse id="Ellipse 37_5" cx="122.578" cy="41.029" rx="1.773" ry="1.739"/><ellipse id="Ellipse 38_5" cx="133.56" cy="41.029" rx="1.773" ry="1.739"/><ellipse id="Ellipse 39_5" cx="144.543" cy="41.029" rx="1.773" ry="1.739"/><ellipse id="Ellipse 40_5" cx="155.525" cy="41.029" rx="1.773" ry="1.739"/><ellipse id="Ellipse 41_5" cx="166.507" cy="41.029" rx="1.773" ry="1.739"/><ellipse id="Ellipse 42_5" cx="177.489" cy="41.029" rx="1.773" ry="1.739"/><ellipse id="Ellipse 43_5" cx="188.472" cy="41.029" rx="1.773" ry="1.739"/><ellipse id="Ellipse 44_5" cx="199.454" cy="41.029" rx="1.773" ry="1.739"/><ellipse id="Ellipse 45_5" cx="210.436" cy="41.029" rx="1.773" ry="1.739"/></g><g id="Group 43"><ellipse id="Ellipse 26_6" cx="1.773" cy="50.825" rx="1.773" ry="1.739"/><ellipse id="Ellipse 27_6" cx="12.755" cy="50.825" rx="1.773" ry="1.739"/><ellipse id="Ellipse 28_6" cx="23.737" cy="50.825" rx="1.773" ry="1.739"/><ellipse id="Ellipse 29_6" cx="34.72" cy="50.825" rx="1.773" ry="1.739"/><ellipse id="Ellipse 30_6" cx="45.702" cy="50.825" rx="1.773" ry="1.739"/><ellipse id="Ellipse 31_6" cx="56.684" cy="50.825" rx="1.773" ry="1.739"/><ellipse id="Ellipse 32_6" cx="67.667" cy="50.825" rx="1.773" ry="1.739"/><ellipse id="Ellipse 33_6" cx="78.649" cy="50.825" rx="1.773" ry="1.739"/><ellipse id="Ellipse 34_6" cx="89.631" cy="50.825" rx="1.773" ry="1.739"/><ellipse id="Ellipse 35_6" cx="100.613" cy="50.825" rx="1.773" ry="1.739"/><ellipse id="Ellipse 36_6" cx="111.596" cy="50.825" rx="1.773" ry="1.739"/><ellipse id="Ellipse 37_6" cx="122.578" cy="50.825" rx="1.773" ry="1.739"/><ellipse id="Ellipse 38_6" cx="133.56" cy="50.825" rx="1.773" ry="1.739"/><ellipse id="Ellipse 39_6" cx="144.543" cy="50.825" rx="1.773" ry="1.739"/><ellipse id="Ellipse 40_6" cx="155.525" cy="50.825" rx="1.773" ry="1.739"/><ellipse id="Ellipse 41_6" cx="166.507" cy="50.825" rx="1.773" ry="1.739"/><ellipse id="Ellipse 42_6" cx="177.489" cy="50.825" rx="1.773" ry="1.739"/><ellipse id="Ellipse 43_6" cx="188.472" cy="50.825" rx="1.773" ry="1.739"/><ellipse id="Ellipse 44_6" cx="199.454" cy="50.825" rx="1.773" ry="1.739"/><ellipse id="Ellipse 45_6" cx="210.436" cy="50.825" rx="1.773" ry="1.739"/></g><g id="Group 44"><ellipse id="Ellipse 26_7" cx="1.773" cy="60.621" rx="1.773" ry="1.739"/><ellipse id="Ellipse 27_7" cx="12.755" cy="60.621" rx="1.773" ry="1.739"/><ellipse id="Ellipse 28_7" cx="23.737" cy="60.621" rx="1.773" ry="1.739"/><ellipse id="Ellipse 29_7" cx="34.72" cy="60.621" rx="1.773" ry="1.739"/><ellipse id="Ellipse 30_7" cx="45.702" cy="60.621" rx="1.773" ry="1.739"/><ellipse id="Ellipse 31_7" cx="56.684" cy="60.621" rx="1.773" ry="1.739"/><ellipse id="Ellipse 32_7" cx="67.667" cy="60.621" rx="1.773" ry="1.739"/><ellipse id="Ellipse 33_7" cx="78.649" cy="60.621" rx="1.773" ry="1.739"/><ellipse id="Ellipse 34_7" cx="89.631" cy="60.621" rx="1.773" ry="1.739"/><ellipse id="Ellipse 35_7" cx="100.613" cy="60.621" rx="1.773" ry="1.739"/><ellipse id="Ellipse 36_7" cx="111.596" cy="60.621" rx="1.773" ry="1.739"/><ellipse id="Ellipse 37_7" cx="122.578" cy="60.621" rx="1.773" ry="1.739"/><ellipse id="Ellipse 38_7" cx="133.56" cy="60.621" rx="1.773" ry="1.739"/><ellipse id="Ellipse 39_7" cx="144.543" cy="60.621" rx="1.773" ry="1.739"/><ellipse id="Ellipse 40_7" cx="155.525" cy="60.621" rx="1.773" ry="1.739"/><ellipse id="Ellipse 41_7" cx="166.507" cy="60.621" rx="1.773" ry="1.739"/><ellipse id="Ellipse 42_7" cx="177.489" cy="60.621" rx="1.773" ry="1.739"/><ellipse id="Ellipse 43_7" cx="188.472" cy="60.621" rx="1.773" ry="1.739"/><ellipse id="Ellipse 44_7" cx="199.454" cy="60.621" rx="1.773" ry="1.739"/><ellipse id="Ellipse 45_7" cx="210.436" cy="60.621" rx="1.773" ry="1.739"/></g><g id="Group 45"><ellipse id="Ellipse 26_8" cx="1.773" cy="70.417" rx="1.773" ry="1.739"/><ellipse id="Ellipse 27_8" cx="12.755" cy="70.417" rx="1.773" ry="1.739"/><ellipse id="Ellipse 28_8" cx="23.737" cy="70.417" rx="1.773" ry="1.739"/><ellipse id="Ellipse 29_8" cx="34.72" cy="70.417" rx="1.773" ry="1.739"/><ellipse id="Ellipse 30_8" cx="45.702" cy="70.417" rx="1.773" ry="1.739"/><ellipse id="Ellipse 31_8" cx="56.684" cy="70.417" rx="1.773" ry="1.739"/><ellipse id="Ellipse 32_8" cx="67.667" cy="70.417" rx="1.773" ry="1.739"/><ellipse id="Ellipse 33_8" cx="78.649" cy="70.417" rx="1.773" ry="1.739"/><ellipse id="Ellipse 34_8" cx="89.631" cy="70.417" rx="1.773" ry="1.739"/><ellipse id="Ellipse 35_8" cx="100.613" cy="70.417" rx="1.773" ry="1.739"/><ellipse id="Ellipse 36_8" cx="111.596" cy="70.417" rx="1.773" ry="1.739"/><ellipse id="Ellipse 37_8" cx="122.578" cy="70.417" rx="1.773" ry="1.739"/><ellipse id="Ellipse 38_8" cx="133.56" cy="70.417" rx="1.773" ry="1.739"/><ellipse id="Ellipse 39_8" cx="144.543" cy="70.417" rx="1.773" ry="1.739"/><ellipse id="Ellipse 40_8" cx="155.525" cy="70.417" rx="1.773" ry="1.739"/><ellipse id="Ellipse 41_8" cx="166.507" cy="70.417" rx="1.773" ry="1.739"/><ellipse id="Ellipse 42_8" cx="177.489" cy="70.417" rx="1.773" ry="1.739"/><ellipse id="Ellipse 43_8" cx="188.472" cy="70.417" rx="1.773" ry="1.739"/><ellipse id="Ellipse 44_8" cx="199.454" cy="70.417" rx="1.773" ry="1.739"/><ellipse id="Ellipse 45_8" cx="210.436" cy="70.417" rx="1.773" ry="1.739"/></g><g id="Group 46"><ellipse id="Ellipse 26_9" cx="1.773" cy="80.213" rx="1.773" ry="1.739"/><ellipse id="Ellipse 27_9" cx="12.755" cy="80.213" rx="1.773" ry="1.739"/><ellipse id="Ellipse 28_9" cx="23.737" cy="80.213" rx="1.773" ry="1.739"/><ellipse id="Ellipse 29_9" cx="34.72" cy="80.213" rx="1.773" ry="1.739"/><ellipse id="Ellipse 30_9" cx="45.702" cy="80.213" rx="1.773" ry="1.739"/><ellipse id="Ellipse 31_9" cx="56.684" cy="80.213" rx="1.773" ry="1.739"/><ellipse id="Ellipse 32_9" cx="67.667" cy="80.213" rx="1.773" ry="1.739"/><ellipse id="Ellipse 33_9" cx="78.649" cy="80.213" rx="1.773" ry="1.739"/><ellipse id="Ellipse 34_9" cx="89.631" cy="80.213" rx="1.773" ry="1.739"/><ellipse id="Ellipse 35_9" cx="100.613" cy="80.213" rx="1.773" ry="1.739"/><ellipse id="Ellipse 36_9" cx="111.596" cy="80.213" rx="1.773" ry="1.739"/><ellipse id="Ellipse 37_9" cx="122.578" cy="80.213" rx="1.773" ry="1.739"/><ellipse id="Ellipse 38_9" cx="133.56" cy="80.213" rx="1.773" ry="1.739"/><ellipse id="Ellipse 39_9" cx="144.543" cy="80.213" rx="1.773" ry="1.739"/><ellipse id="Ellipse 40_9" cx="155.525" cy="80.213" rx="1.773" ry="1.739"/><ellipse id="Ellipse 41_9" cx="166.507" cy="80.213" rx="1.773" ry="1.739"/><ellipse id="Ellipse 42_9" cx="177.489" cy="80.213" rx="1.773" ry="1.739"/><ellipse id="Ellipse 43_9" cx="188.472" cy="80.213" rx="1.773" ry="1.739"/><ellipse id="Ellipse 44_9" cx="199.454" cy="80.213" rx="1.773" ry="1.739"/><ellipse id="Ellipse 45_9" cx="210.436" cy="80.213" rx="1.773" ry="1.739"/></g><g id="Group 47"><ellipse id="Ellipse 26_10" cx="1.773" cy="90.009" rx="1.773" ry="1.739"/><ellipse id="Ellipse 27_10" cx="12.755" cy="90.009" rx="1.773" ry="1.739"/><ellipse id="Ellipse 28_10" cx="23.737" cy="90.009" rx="1.773" ry="1.739"/><ellipse id="Ellipse 29_10" cx="34.72" cy="90.009" rx="1.773" ry="1.739"/><ellipse id="Ellipse 30_10" cx="45.702" cy="90.009" rx="1.773" ry="1.739"/><ellipse id="Ellipse 31_10" cx="56.684" cy="90.009" rx="1.773" ry="1.739"/><ellipse id="Ellipse 32_10" cx="67.667" cy="90.009" rx="1.773" ry="1.739"/><ellipse id="Ellipse 33_10" cx="78.649" cy="90.009" rx="1.773" ry="1.739"/><ellipse id="Ellipse 34_10" cx="89.631" cy="90.009" rx="1.773" ry="1.739"/><ellipse id="Ellipse 35_10" cx="100.613" cy="90.009" rx="1.773" ry="1.739"/><ellipse id="Ellipse 36_10" cx="111.596" cy="90.009" rx="1.773" ry="1.739"/><ellipse id="Ellipse 37_10" cx="122.578" cy="90.009" rx="1.773" ry="1.739"/><ellipse id="Ellipse 38_10" cx="133.56" cy="90.009" rx="1.773" ry="1.739"/><ellipse id="Ellipse 39_10" cx="144.543" cy="90.009" rx="1.773" ry="1.739"/><ellipse id="Ellipse 40_10" cx="155.525" cy="90.009" rx="1.773" ry="1.739"/><ellipse id="Ellipse 41_10" cx="166.507" cy="90.009" rx="1.773" ry="1.739"/><ellipse id="Ellipse 42_10" cx="177.489" cy="90.009" rx="1.773" ry="1.739"/><ellipse id="Ellipse 43_10" cx="188.472" cy="90.009" rx="1.773" ry="1.739"/><ellipse id="Ellipse 44_10" cx="199.454" cy="90.009" rx="1.773" ry="1.739"/><ellipse id="Ellipse 45_10" cx="210.436" cy="90.009" rx="1.773" ry="1.739"/></g><g id="Group 48"><ellipse id="Ellipse 26_11" cx="1.773" cy="99.805" rx="1.773" ry="1.739"/><ellipse id="Ellipse 27_11" cx="12.755" cy="99.805" rx="1.773" ry="1.739"/><ellipse id="Ellipse 28_11" cx="23.737" cy="99.805" rx="1.773" ry="1.739"/><ellipse id="Ellipse 29_11" cx="34.72" cy="99.805" rx="1.773" ry="1.739"/><ellipse id="Ellipse 30_11" cx="45.702" cy="99.805" rx="1.773" ry="1.739"/><ellipse id="Ellipse 31_11" cx="56.684" cy="99.805" rx="1.773" ry="1.739"/><ellipse id="Ellipse 32_11" cx="67.667" cy="99.805" rx="1.773" ry="1.739"/><ellipse id="Ellipse 33_11" cx="78.649" cy="99.805" rx="1.773" ry="1.739"/><ellipse id="Ellipse 34_11" cx="89.631" cy="99.805" rx="1.773" ry="1.739"/><ellipse id="Ellipse 35_11" cx="100.613" cy="99.805" rx="1.773" ry="1.739"/><ellipse id="Ellipse 36_11" cx="111.596" cy="99.805" rx="1.773" ry="1.739"/><ellipse id="Ellipse 37_11" cx="122.578" cy="99.805" rx="1.773" ry="1.739"/><ellipse id="Ellipse 38_11" cx="133.56" cy="99.805" rx="1.773" ry="1.739"/><ellipse id="Ellipse 39_11" cx="144.543" cy="99.805" rx="1.773" ry="1.739"/><ellipse id="Ellipse 40_11" cx="155.525" cy="99.805" rx="1.773" ry="1.739"/><ellipse id="Ellipse 41_11" cx="166.507" cy="99.805" rx="1.773" ry="1.739"/><ellipse id="Ellipse 42_11" cx="177.489" cy="99.805" rx="1.773" ry="1.739"/><ellipse id="Ellipse 43_11" cx="188.472" cy="99.805" rx="1.773" ry="1.739"/><ellipse id="Ellipse 44_11" cx="199.454" cy="99.805" rx="1.773" ry="1.739"/><ellipse id="Ellipse 45_11" cx="210.436" cy="99.805" rx="1.773" ry="1.739"/></g><g id="Group 49"><ellipse id="Ellipse 26_12" cx="1.773" cy="109.601" rx="1.773" ry="1.739"/><ellipse id="Ellipse 27_12" cx="12.755" cy="109.601" rx="1.773" ry="1.739"/><ellipse id="Ellipse 28_12" cx="23.737" cy="109.601" rx="1.773" ry="1.739"/><ellipse id="Ellipse 29_12" cx="34.72" cy="109.601" rx="1.773" ry="1.739"/><ellipse id="Ellipse 30_12" cx="45.702" cy="109.601" rx="1.773" ry="1.739"/><ellipse id="Ellipse 31_12" cx="56.684" cy="109.601" rx="1.773" ry="1.739"/><ellipse id="Ellipse 32_12" cx="67.667" cy="109.601" rx="1.773" ry="1.739"/><ellipse id="Ellipse 33_12" cx="78.649" cy="109.601" rx="1.773" ry="1.739"/><ellipse id="Ellipse 34_12" cx="89.631" cy="109.601" rx="1.773" ry="1.739"/><ellipse id="Ellipse 35_12" cx="100.613" cy="109.601" rx="1.773" ry="1.739"/><ellipse id="Ellipse 36_12" cx="111.596" cy="109.601" rx="1.773" ry="1.739"/><ellipse id="Ellipse 37_12" cx="122.578" cy="109.601" rx="1.773" ry="1.739"/><ellipse id="Ellipse 38_12" cx="133.56" cy="109.601" rx="1.773" ry="1.739"/><ellipse id="Ellipse 39_12" cx="144.543" cy="109.601" rx="1.773" ry="1.739"/><ellipse id="Ellipse 40_12" cx="155.525" cy="109.601" rx="1.773" ry="1.739"/><ellipse id="Ellipse 41_12" cx="166.507" cy="109.601" rx="1.773" ry="1.739"/><ellipse id="Ellipse 42_12" cx="177.489" cy="109.601" rx="1.773" ry="1.739"/><ellipse id="Ellipse 43_12" cx="188.472" cy="109.601" rx="1.773" ry="1.739"/><ellipse id="Ellipse 44_12" cx="199.454" cy="109.601" rx="1.773" ry="1.739"/><ellipse id="Ellipse 45_12" cx="210.436" cy="109.601" rx="1.773" ry="1.739"/></g><g id="Group 50"><ellipse id="Ellipse 26_13" cx="1.773" cy="119.397" rx="1.773" ry="1.739"/><ellipse id="Ellipse 27_13" cx="12.755" cy="119.397" rx="1.773" ry="1.739"/><ellipse id="Ellipse 28_13" cx="23.737" cy="119.397" rx="1.773" ry="1.739"/><ellipse id="Ellipse 29_13" cx="34.72" cy="119.397" rx="1.773" ry="1.739"/><ellipse id="Ellipse 30_13" cx="45.702" cy="119.397" rx="1.773" ry="1.739"/><ellipse id="Ellipse 31_13" cx="56.684" cy="119.397" rx="1.773" ry="1.739"/><ellipse id="Ellipse 32_13" cx="67.667" cy="119.397" rx="1.773" ry="1.739"/><ellipse id="Ellipse 33_13" cx="78.649" cy="119.397" rx="1.773" ry="1.739"/><ellipse id="Ellipse 34_13" cx="89.631" cy="119.397" rx="1.773" ry="1.739"/><ellipse id="Ellipse 35_13" cx="100.613" cy="119.397" rx="1.773" ry="1.739"/><ellipse id="Ellipse 36_13" cx="111.596" cy="119.397" rx="1.773" ry="1.739"/><ellipse id="Ellipse 37_13" cx="122.578" cy="119.397" rx="1.773" ry="1.739"/><ellipse id="Ellipse 38_13" cx="133.56" cy="119.397" rx="1.773" ry="1.739"/><ellipse id="Ellipse 39_13" cx="144.543" cy="119.397" rx="1.773" ry="1.739"/><ellipse id="Ellipse 40_13" cx="155.525" cy="119.397" rx="1.773" ry="1.739"/><ellipse id="Ellipse 41_13" cx="166.507" cy="119.397" rx="1.773" ry="1.739"/><ellipse id="Ellipse 42_13" cx="177.489" cy="119.397" rx="1.773" ry="1.739"/><ellipse id="Ellipse 43_13" cx="188.472" cy="119.397" rx="1.773" ry="1.739"/><ellipse id="Ellipse 44_13" cx="199.454" cy="119.397" rx="1.773" ry="1.739"/><ellipse id="Ellipse 45_13" cx="210.436" cy="119.397" rx="1.773" ry="1.739"/></g><g id="Group 51"><ellipse id="Ellipse 26_14" cx="1.773" cy="129.193" rx="1.773" ry="1.739"/><ellipse id="Ellipse 27_14" cx="12.755" cy="129.193" rx="1.773" ry="1.739"/><ellipse id="Ellipse 28_14" cx="23.737" cy="129.193" rx="1.773" ry="1.739"/><ellipse id="Ellipse 29_14" cx="34.72" cy="129.193" rx="1.773" ry="1.739"/><ellipse id="Ellipse 30_14" cx="45.702" cy="129.193" rx="1.773" ry="1.739"/><ellipse id="Ellipse 31_14" cx="56.684" cy="129.193" rx="1.773" ry="1.739"/><ellipse id="Ellipse 32_14" cx="67.667" cy="129.193" rx="1.773" ry="1.739"/><ellipse id="Ellipse 33_14" cx="78.649" cy="129.193" rx="1.773" ry="1.739"/><ellipse id="Ellipse 34_14" cx="89.631" cy="129.193" rx="1.773" ry="1.739"/><ellipse id="Ellipse 35_14" cx="100.613" cy="129.193" rx="1.773" ry="1.739"/><ellipse id="Ellipse 36_14" cx="111.596" cy="129.193" rx="1.773" ry="1.739"/><ellipse id="Ellipse 37_14" cx="122.578" cy="129.193" rx="1.773" ry="1.739"/><ellipse id="Ellipse 38_14" cx="133.56" cy="129.193" rx="1.773" ry="1.739"/><ellipse id="Ellipse 39_14" cx="144.543" cy="129.193" rx="1.773" ry="1.739"/><ellipse id="Ellipse 40_14" cx="155.525" cy="129.193" rx="1.773" ry="1.739"/><ellipse id="Ellipse 41_14" cx="166.507" cy="129.193" rx="1.773" ry="1.739"/><ellipse id="Ellipse 42_14" cx="177.489" cy="129.193" rx="1.773" ry="1.739"/><ellipse id="Ellipse 43_14" cx="188.472" cy="129.193" rx="1.773" ry="1.739"/><ellipse id="Ellipse 44_14" cx="199.454" cy="129.193" rx="1.773" ry="1.739"/><ellipse id="Ellipse 45_14" cx="210.436" cy="129.193" rx="1.773" ry="1.739"/></g><g id="Group 52"><ellipse id="Ellipse 26_15" cx="1.773" cy="138.989" rx="1.773" ry="1.739"/><ellipse id="Ellipse 27_15" cx="12.755" cy="138.989" rx="1.773" ry="1.739"/><ellipse id="Ellipse 28_15" cx="23.737" cy="138.989" rx="1.773" ry="1.739"/><ellipse id="Ellipse 29_15" cx="34.72" cy="138.989" rx="1.773" ry="1.739"/><ellipse id="Ellipse 30_15" cx="45.702" cy="138.989" rx="1.773" ry="1.739"/><ellipse id="Ellipse 31_15" cx="56.684" cy="138.989" rx="1.773" ry="1.739"/><ellipse id="Ellipse 32_15" cx="67.667" cy="138.989" rx="1.773" ry="1.739"/><ellipse id="Ellipse 33_15" cx="78.649" cy="138.989" rx="1.773" ry="1.739"/><ellipse id="Ellipse 34_15" cx="89.631" cy="138.989" rx="1.773" ry="1.739"/><ellipse id="Ellipse 35_15" cx="100.613" cy="138.989" rx="1.773" ry="1.739"/><ellipse id="Ellipse 36_15" cx="111.596" cy="138.989" rx="1.773" ry="1.739"/><ellipse id="Ellipse 37_15" cx="122.578" cy="138.989" rx="1.773" ry="1.739"/><ellipse id="Ellipse 38_15" cx="133.56" cy="138.989" rx="1.773" ry="1.739"/><ellipse id="Ellipse 39_15" cx="144.543" cy="138.989" rx="1.773" ry="1.739"/><ellipse id="Ellipse 40_15" cx="155.525" cy="138.989" rx="1.773" ry="1.739"/><ellipse id="Ellipse 41_15" cx="166.507" cy="138.989" rx="1.773" ry="1.739"/><ellipse id="Ellipse 42_15" cx="177.489" cy="138.989" rx="1.773" ry="1.739"/><ellipse id="Ellipse 43_15" cx="188.472" cy="138.989" rx="1.773" ry="1.739"/><ellipse id="Ellipse 44_15" cx="199.454" cy="138.989" rx="1.773" ry="1.739"/><ellipse id="Ellipse 45_15" cx="210.436" cy="138.989" rx="1.773" ry="1.739"/></g><g id="Group 53"><ellipse id="Ellipse 26_16" cx="1.773" cy="148.785" rx="1.773" ry="1.739"/><ellipse id="Ellipse 27_16" cx="12.755" cy="148.785" rx="1.773" ry="1.739"/><ellipse id="Ellipse 28_16" cx="23.737" cy="148.785" rx="1.773" ry="1.739"/><ellipse id="Ellipse 29_16" cx="34.72" cy="148.785" rx="1.773" ry="1.739"/><ellipse id="Ellipse 30_16" cx="45.702" cy="148.785" rx="1.773" ry="1.739"/><ellipse id="Ellipse 31_16" cx="56.684" cy="148.785" rx="1.773" ry="1.739"/><ellipse id="Ellipse 32_16" cx="67.667" cy="148.785" rx="1.773" ry="1.739"/><ellipse id="Ellipse 33_16" cx="78.649" cy="148.785" rx="1.773" ry="1.739"/><ellipse id="Ellipse 34_16" cx="89.631" cy="148.785" rx="1.773" ry="1.739"/><ellipse id="Ellipse 35_16" cx="100.613" cy="148.785" rx="1.773" ry="1.739"/><ellipse id="Ellipse 36_16" cx="111.596" cy="148.785" rx="1.773" ry="1.739"/><ellipse id="Ellipse 37_16" cx="122.578" cy="148.785" rx="1.773" ry="1.739"/><ellipse id="Ellipse 38_16" cx="133.56" cy="148.785" rx="1.773" ry="1.739"/><ellipse id="Ellipse 39_16" cx="144.543" cy="148.785" rx="1.773" ry="1.739"/><ellipse id="Ellipse 40_16" cx="155.525" cy="148.785" rx="1.773" ry="1.739"/><ellipse id="Ellipse 41_16" cx="166.507" cy="148.785" rx="1.773" ry="1.739"/><ellipse id="Ellipse 42_16" cx="177.489" cy="148.785" rx="1.773" ry="1.739"/><ellipse id="Ellipse 43_16" cx="188.472" cy="148.785" rx="1.773" ry="1.739"/><ellipse id="Ellipse 44_16" cx="199.454" cy="148.785" rx="1.773" ry="1.739"/><ellipse id="Ellipse 45_16" cx="210.436" cy="148.785" rx="1.773" ry="1.739"/></g></g></svg>