<svg width="800" height="800" viewBox="0 -0.01 39.711 39.711" xmlns="http://www.w3.org/2000/svg"><g id="Group_58" data-name="Group 58" transform="translate(-220.1 -210.4)" fill="none" stroke="#444" stroke-width="2"><path id="Path" d="m247 237-14-14" stroke-linecap="round" stroke-linejoin="round"/><path id="Path_1_" d="M254 231a2.946 2.946 0 0 0-3-3 2.946 2.946 0 0 1-3-3 2.946 2.946 0 0 0-3-3 2.946 2.946 0 0 1-3-3 2.946 2.946 0 0 0-3-3"/><path id="Fill" d="M227 244a1 1 0 1 1-1-1 .945.945 0 0 1 1 1"/><path id="path-2" data-name="path" d="M235 238.7a2.774 2.774 0 0 1 2.9-1.1l6.2 2.1a1.788 1.788 0 0 0 1.7-.4l12.6-12.6a.967.967 0 0 0 0-1.4l-13.6-13.6a.967.967 0 0 0-1.4 0l-12.6 12.6a1.731 1.731 0 0 0-.4 1.7l2.1 6.2a2.563 2.563 0 0 1-1.1 2.9l-8.8 5.4a5.02 5.02 0 1 0 7.1 7.1Z"/></g></svg>