<svg width="247" height="255" viewBox="0 0 247 255" fill="none" xmlns="http://www.w3.org/2000/svg">
<g id="Group 55">
<g id="Group 38">
<ellipse id="Ellipse 26" cx="2.64278" cy="2.50827" rx="2.05318" ry="2.44431" fill="#EBEBEB"/>
<ellipse id="Ellipse 27" cx="15.3619" cy="2.50815" rx="2.05318" ry="2.44431" fill="#EBEBEB"/>
<ellipse id="Ellipse 28" cx="28.081" cy="2.50815" rx="2.05318" ry="2.44431" fill="#EBEBEB"/>
<ellipse id="Ellipse 29" cx="40.8002" cy="2.50815" rx="2.05318" ry="2.44431" fill="#EBEBEB"/>
<ellipse id="Ellipse 30" cx="53.5193" cy="2.50815" rx="2.05318" ry="2.44431" fill="#EBEBEB"/>
<ellipse id="Ellipse 31" cx="66.2384" cy="2.50815" rx="2.05318" ry="2.44431" fill="#EBEBEB"/>
<ellipse id="Ellipse 32" cx="78.9575" cy="2.50815" rx="2.05318" ry="2.44431" fill="#EBEBEB"/>
<ellipse id="Ellipse 33" cx="91.6766" cy="2.50815" rx="2.05318" ry="2.44431" fill="#EBEBEB"/>
<ellipse id="Ellipse 34" cx="104.396" cy="2.50815" rx="2.05318" ry="2.44431" fill="#EBEBEB"/>
<ellipse id="Ellipse 35" cx="117.115" cy="2.50815" rx="2.05318" ry="2.44431" fill="#EBEBEB"/>
<ellipse id="Ellipse 36" cx="129.834" cy="2.50815" rx="2.05318" ry="2.44431" fill="#EBEBEB"/>
<ellipse id="Ellipse 37" cx="142.553" cy="2.50815" rx="2.05318" ry="2.44431" fill="#EBEBEB"/>
<ellipse id="Ellipse 38" cx="155.272" cy="2.50815" rx="2.05318" ry="2.44431" fill="#EBEBEB"/>
<ellipse id="Ellipse 39" cx="167.991" cy="2.50815" rx="2.05318" ry="2.44431" fill="#EBEBEB"/>
<ellipse id="Ellipse 40" cx="180.71" cy="2.50815" rx="2.05318" ry="2.44431" fill="#EBEBEB"/>
<ellipse id="Ellipse 41" cx="193.429" cy="2.50815" rx="2.05318" ry="2.44431" fill="#EBEBEB"/>
<ellipse id="Ellipse 42" cx="206.149" cy="2.50815" rx="2.05318" ry="2.44431" fill="#EBEBEB"/>
<ellipse id="Ellipse 43" cx="218.868" cy="2.50815" rx="2.05318" ry="2.44431" fill="#EBEBEB"/>
<ellipse id="Ellipse 44" cx="231.587" cy="2.50815" rx="2.05318" ry="2.44431" fill="#EBEBEB"/>
<ellipse id="Ellipse 45" cx="244.306" cy="2.50815" rx="2.05318" ry="2.44431" fill="#EBEBEB"/>
</g>
<g id="Group 39">
<ellipse id="Ellipse 26_2" cx="2.6429" cy="19.1522" rx="2.05318" ry="2.44431" fill="#EBEBEB"/>
<ellipse id="Ellipse 27_2" cx="15.362" cy="19.1522" rx="2.05318" ry="2.44431" fill="#EBEBEB"/>
<ellipse id="Ellipse 28_2" cx="28.0811" cy="19.1522" rx="2.05318" ry="2.44431" fill="#EBEBEB"/>
<ellipse id="Ellipse 29_2" cx="40.8003" cy="19.1522" rx="2.05318" ry="2.44431" fill="#EBEBEB"/>
<ellipse id="Ellipse 30_2" cx="53.5194" cy="19.1522" rx="2.05318" ry="2.44431" fill="#EBEBEB"/>
<ellipse id="Ellipse 31_2" cx="66.2385" cy="19.1522" rx="2.05318" ry="2.44431" fill="#EBEBEB"/>
<ellipse id="Ellipse 32_2" cx="78.9576" cy="19.1522" rx="2.05318" ry="2.44431" fill="#EBEBEB"/>
<ellipse id="Ellipse 33_2" cx="91.6767" cy="19.1522" rx="2.05318" ry="2.44431" fill="#EBEBEB"/>
<ellipse id="Ellipse 34_2" cx="104.396" cy="19.1522" rx="2.05318" ry="2.44431" fill="#EBEBEB"/>
<ellipse id="Ellipse 35_2" cx="117.115" cy="19.1522" rx="2.05318" ry="2.44431" fill="#EBEBEB"/>
<ellipse id="Ellipse 36_2" cx="129.834" cy="19.1522" rx="2.05318" ry="2.44431" fill="#EBEBEB"/>
<ellipse id="Ellipse 37_2" cx="142.553" cy="19.1522" rx="2.05318" ry="2.44431" fill="#EBEBEB"/>
<ellipse id="Ellipse 38_2" cx="155.272" cy="19.1522" rx="2.05318" ry="2.44431" fill="#EBEBEB"/>
<ellipse id="Ellipse 39_2" cx="167.991" cy="19.1522" rx="2.05318" ry="2.44431" fill="#EBEBEB"/>
<ellipse id="Ellipse 40_2" cx="180.71" cy="19.1522" rx="2.05318" ry="2.44431" fill="#EBEBEB"/>
<ellipse id="Ellipse 41_2" cx="193.43" cy="19.1522" rx="2.05318" ry="2.44431" fill="#EBEBEB"/>
<ellipse id="Ellipse 42_2" cx="206.149" cy="19.1522" rx="2.05318" ry="2.44431" fill="#EBEBEB"/>
<ellipse id="Ellipse 43_2" cx="218.868" cy="19.1522" rx="2.05318" ry="2.44431" fill="#EBEBEB"/>
<ellipse id="Ellipse 44_2" cx="231.587" cy="19.1522" rx="2.05318" ry="2.44431" fill="#EBEBEB"/>
<ellipse id="Ellipse 45_2" cx="244.306" cy="19.1522" rx="2.05318" ry="2.44431" fill="#EBEBEB"/>
</g>
<g id="Group 40">
<ellipse id="Ellipse 26_3" cx="2.6429" cy="35.796" rx="2.05318" ry="2.44431" fill="#EBEBEB"/>
<ellipse id="Ellipse 27_3" cx="15.362" cy="35.796" rx="2.05318" ry="2.44431" fill="#EBEBEB"/>
<ellipse id="Ellipse 28_3" cx="28.0811" cy="35.796" rx="2.05318" ry="2.44431" fill="#EBEBEB"/>
<ellipse id="Ellipse 29_3" cx="40.8003" cy="35.796" rx="2.05318" ry="2.44431" fill="#EBEBEB"/>
<ellipse id="Ellipse 30_3" cx="53.5194" cy="35.796" rx="2.05318" ry="2.44431" fill="#EBEBEB"/>
<ellipse id="Ellipse 31_3" cx="66.2385" cy="35.796" rx="2.05318" ry="2.44431" fill="#EBEBEB"/>
<ellipse id="Ellipse 32_3" cx="78.9576" cy="35.796" rx="2.05318" ry="2.44431" fill="#EBEBEB"/>
<ellipse id="Ellipse 33_3" cx="91.6767" cy="35.796" rx="2.05318" ry="2.44431" fill="#EBEBEB"/>
<ellipse id="Ellipse 34_3" cx="104.396" cy="35.796" rx="2.05318" ry="2.44431" fill="#EBEBEB"/>
<ellipse id="Ellipse 35_3" cx="117.115" cy="35.796" rx="2.05318" ry="2.44431" fill="#EBEBEB"/>
<ellipse id="Ellipse 36_3" cx="129.834" cy="35.796" rx="2.05318" ry="2.44431" fill="#EBEBEB"/>
<ellipse id="Ellipse 37_3" cx="142.553" cy="35.796" rx="2.05318" ry="2.44431" fill="#EBEBEB"/>
<ellipse id="Ellipse 38_3" cx="155.272" cy="35.796" rx="2.05318" ry="2.44431" fill="#EBEBEB"/>
<ellipse id="Ellipse 39_3" cx="167.991" cy="35.796" rx="2.05318" ry="2.44431" fill="#EBEBEB"/>
<ellipse id="Ellipse 40_3" cx="180.71" cy="35.796" rx="2.05318" ry="2.44431" fill="#EBEBEB"/>
<ellipse id="Ellipse 41_3" cx="193.43" cy="35.796" rx="2.05318" ry="2.44431" fill="#EBEBEB"/>
<ellipse id="Ellipse 42_3" cx="206.149" cy="35.796" rx="2.05318" ry="2.44431" fill="#EBEBEB"/>
<ellipse id="Ellipse 43_3" cx="218.868" cy="35.796" rx="2.05318" ry="2.44431" fill="#EBEBEB"/>
<ellipse id="Ellipse 44_3" cx="231.587" cy="35.796" rx="2.05318" ry="2.44431" fill="#EBEBEB"/>
<ellipse id="Ellipse 45_3" cx="244.306" cy="35.796" rx="2.05318" ry="2.44431" fill="#EBEBEB"/>
</g>
<g id="Group 41">
<ellipse id="Ellipse 26_4" cx="2.6429" cy="52.4398" rx="2.05318" ry="2.44431" fill="#EBEBEB"/>
<ellipse id="Ellipse 27_4" cx="15.362" cy="52.4398" rx="2.05318" ry="2.44431" fill="#EBEBEB"/>
<ellipse id="Ellipse 28_4" cx="28.0811" cy="52.4398" rx="2.05318" ry="2.44431" fill="#EBEBEB"/>
<ellipse id="Ellipse 29_4" cx="40.8003" cy="52.4398" rx="2.05318" ry="2.44431" fill="#EBEBEB"/>
<ellipse id="Ellipse 30_4" cx="53.5194" cy="52.4398" rx="2.05318" ry="2.44431" fill="#EBEBEB"/>
<ellipse id="Ellipse 31_4" cx="66.2385" cy="52.4398" rx="2.05318" ry="2.44431" fill="#EBEBEB"/>
<ellipse id="Ellipse 32_4" cx="78.9576" cy="52.4398" rx="2.05318" ry="2.44431" fill="#EBEBEB"/>
<ellipse id="Ellipse 33_4" cx="91.6767" cy="52.4398" rx="2.05318" ry="2.44431" fill="#EBEBEB"/>
<ellipse id="Ellipse 34_4" cx="104.396" cy="52.4398" rx="2.05318" ry="2.44431" fill="#EBEBEB"/>
<ellipse id="Ellipse 35_4" cx="117.115" cy="52.4398" rx="2.05318" ry="2.44431" fill="#EBEBEB"/>
<ellipse id="Ellipse 36_4" cx="129.834" cy="52.4398" rx="2.05318" ry="2.44431" fill="#EBEBEB"/>
<ellipse id="Ellipse 37_4" cx="142.553" cy="52.4398" rx="2.05318" ry="2.44431" fill="#EBEBEB"/>
<ellipse id="Ellipse 38_4" cx="155.272" cy="52.4398" rx="2.05318" ry="2.44431" fill="#EBEBEB"/>
<ellipse id="Ellipse 39_4" cx="167.991" cy="52.4398" rx="2.05318" ry="2.44431" fill="#EBEBEB"/>
<ellipse id="Ellipse 40_4" cx="180.71" cy="52.4398" rx="2.05318" ry="2.44431" fill="#EBEBEB"/>
<ellipse id="Ellipse 41_4" cx="193.43" cy="52.4398" rx="2.05318" ry="2.44431" fill="#EBEBEB"/>
<ellipse id="Ellipse 42_4" cx="206.149" cy="52.4398" rx="2.05318" ry="2.44431" fill="#EBEBEB"/>
<ellipse id="Ellipse 43_4" cx="218.868" cy="52.4398" rx="2.05318" ry="2.44431" fill="#EBEBEB"/>
<ellipse id="Ellipse 44_4" cx="231.587" cy="52.4398" rx="2.05318" ry="2.44431" fill="#EBEBEB"/>
<ellipse id="Ellipse 45_4" cx="244.306" cy="52.4398" rx="2.05318" ry="2.44431" fill="#EBEBEB"/>
</g>
<g id="Group 42">
<ellipse id="Ellipse 26_5" cx="2.6429" cy="69.0836" rx="2.05318" ry="2.44431" fill="#EBEBEB"/>
<ellipse id="Ellipse 27_5" cx="15.362" cy="69.0836" rx="2.05318" ry="2.44431" fill="#EBEBEB"/>
<ellipse id="Ellipse 28_5" cx="28.0811" cy="69.0836" rx="2.05318" ry="2.44431" fill="#EBEBEB"/>
<ellipse id="Ellipse 29_5" cx="40.8003" cy="69.0836" rx="2.05318" ry="2.44431" fill="#EBEBEB"/>
<ellipse id="Ellipse 30_5" cx="53.5194" cy="69.0836" rx="2.05318" ry="2.44431" fill="#EBEBEB"/>
<ellipse id="Ellipse 31_5" cx="66.2385" cy="69.0836" rx="2.05318" ry="2.44431" fill="#EBEBEB"/>
<ellipse id="Ellipse 32_5" cx="78.9576" cy="69.0836" rx="2.05318" ry="2.44431" fill="#EBEBEB"/>
<ellipse id="Ellipse 33_5" cx="91.6767" cy="69.0836" rx="2.05318" ry="2.44431" fill="#EBEBEB"/>
<ellipse id="Ellipse 34_5" cx="104.396" cy="69.0836" rx="2.05318" ry="2.44431" fill="#EBEBEB"/>
<ellipse id="Ellipse 35_5" cx="117.115" cy="69.0836" rx="2.05318" ry="2.44431" fill="#EBEBEB"/>
<ellipse id="Ellipse 36_5" cx="129.834" cy="69.0836" rx="2.05318" ry="2.44431" fill="#EBEBEB"/>
<ellipse id="Ellipse 37_5" cx="142.553" cy="69.0836" rx="2.05318" ry="2.44431" fill="#EBEBEB"/>
<ellipse id="Ellipse 38_5" cx="155.272" cy="69.0836" rx="2.05318" ry="2.44431" fill="#EBEBEB"/>
<ellipse id="Ellipse 39_5" cx="167.991" cy="69.0836" rx="2.05318" ry="2.44431" fill="#EBEBEB"/>
<ellipse id="Ellipse 40_5" cx="180.71" cy="69.0836" rx="2.05318" ry="2.44431" fill="#EBEBEB"/>
<ellipse id="Ellipse 41_5" cx="193.43" cy="69.0836" rx="2.05318" ry="2.44431" fill="#EBEBEB"/>
<ellipse id="Ellipse 42_5" cx="206.149" cy="69.0836" rx="2.05318" ry="2.44431" fill="#EBEBEB"/>
<ellipse id="Ellipse 43_5" cx="218.868" cy="69.0836" rx="2.05318" ry="2.44431" fill="#EBEBEB"/>
<ellipse id="Ellipse 44_5" cx="231.587" cy="69.0836" rx="2.05318" ry="2.44431" fill="#EBEBEB"/>
<ellipse id="Ellipse 45_5" cx="244.306" cy="69.0836" rx="2.05318" ry="2.44431" fill="#EBEBEB"/>
</g>
<g id="Group 43">
<ellipse id="Ellipse 26_6" cx="2.6429" cy="85.7275" rx="2.05318" ry="2.44431" fill="#EBEBEB"/>
<ellipse id="Ellipse 27_6" cx="15.362" cy="85.7275" rx="2.05318" ry="2.44431" fill="#EBEBEB"/>
<ellipse id="Ellipse 28_6" cx="28.0811" cy="85.7275" rx="2.05318" ry="2.44431" fill="#EBEBEB"/>
<ellipse id="Ellipse 29_6" cx="40.8003" cy="85.7275" rx="2.05318" ry="2.44431" fill="#EBEBEB"/>
<ellipse id="Ellipse 30_6" cx="53.5194" cy="85.7275" rx="2.05318" ry="2.44431" fill="#EBEBEB"/>
<ellipse id="Ellipse 31_6" cx="66.2385" cy="85.7275" rx="2.05318" ry="2.44431" fill="#EBEBEB"/>
<ellipse id="Ellipse 32_6" cx="78.9576" cy="85.7275" rx="2.05318" ry="2.44431" fill="#EBEBEB"/>
<ellipse id="Ellipse 33_6" cx="91.6767" cy="85.7275" rx="2.05318" ry="2.44431" fill="#EBEBEB"/>
<ellipse id="Ellipse 34_6" cx="104.396" cy="85.7275" rx="2.05318" ry="2.44431" fill="#EBEBEB"/>
<ellipse id="Ellipse 35_6" cx="117.115" cy="85.7275" rx="2.05318" ry="2.44431" fill="#EBEBEB"/>
<ellipse id="Ellipse 36_6" cx="129.834" cy="85.7275" rx="2.05318" ry="2.44431" fill="#EBEBEB"/>
<ellipse id="Ellipse 37_6" cx="142.553" cy="85.7275" rx="2.05318" ry="2.44431" fill="#EBEBEB"/>
<ellipse id="Ellipse 38_6" cx="155.272" cy="85.7275" rx="2.05318" ry="2.44431" fill="#EBEBEB"/>
<ellipse id="Ellipse 39_6" cx="167.991" cy="85.7275" rx="2.05318" ry="2.44431" fill="#EBEBEB"/>
<ellipse id="Ellipse 40_6" cx="180.71" cy="85.7275" rx="2.05318" ry="2.44431" fill="#EBEBEB"/>
<ellipse id="Ellipse 41_6" cx="193.43" cy="85.7275" rx="2.05318" ry="2.44431" fill="#EBEBEB"/>
<ellipse id="Ellipse 42_6" cx="206.149" cy="85.7275" rx="2.05318" ry="2.44431" fill="#EBEBEB"/>
<ellipse id="Ellipse 43_6" cx="218.868" cy="85.7275" rx="2.05318" ry="2.44431" fill="#EBEBEB"/>
<ellipse id="Ellipse 44_6" cx="231.587" cy="85.7275" rx="2.05318" ry="2.44431" fill="#EBEBEB"/>
<ellipse id="Ellipse 45_6" cx="244.306" cy="85.7275" rx="2.05318" ry="2.44431" fill="#EBEBEB"/>
</g>
<g id="Group 44">
<ellipse id="Ellipse 26_7" cx="2.6429" cy="102.371" rx="2.05318" ry="2.44431" fill="#EBEBEB"/>
<ellipse id="Ellipse 27_7" cx="15.362" cy="102.371" rx="2.05318" ry="2.44431" fill="#EBEBEB"/>
<ellipse id="Ellipse 28_7" cx="28.0811" cy="102.371" rx="2.05318" ry="2.44431" fill="#EBEBEB"/>
<ellipse id="Ellipse 29_7" cx="40.8003" cy="102.371" rx="2.05318" ry="2.44431" fill="#EBEBEB"/>
<ellipse id="Ellipse 30_7" cx="53.5194" cy="102.371" rx="2.05318" ry="2.44431" fill="#EBEBEB"/>
<ellipse id="Ellipse 31_7" cx="66.2385" cy="102.371" rx="2.05318" ry="2.44431" fill="#EBEBEB"/>
<ellipse id="Ellipse 32_7" cx="78.9576" cy="102.371" rx="2.05318" ry="2.44431" fill="#EBEBEB"/>
<ellipse id="Ellipse 33_7" cx="91.6767" cy="102.371" rx="2.05318" ry="2.44431" fill="#EBEBEB"/>
<ellipse id="Ellipse 34_7" cx="104.396" cy="102.371" rx="2.05318" ry="2.44431" fill="#EBEBEB"/>
<ellipse id="Ellipse 35_7" cx="117.115" cy="102.371" rx="2.05318" ry="2.44431" fill="#EBEBEB"/>
<ellipse id="Ellipse 36_7" cx="129.834" cy="102.371" rx="2.05318" ry="2.44431" fill="#EBEBEB"/>
<ellipse id="Ellipse 37_7" cx="142.553" cy="102.371" rx="2.05318" ry="2.44431" fill="#EBEBEB"/>
<ellipse id="Ellipse 38_7" cx="155.272" cy="102.371" rx="2.05318" ry="2.44431" fill="#EBEBEB"/>
<ellipse id="Ellipse 39_7" cx="167.991" cy="102.371" rx="2.05318" ry="2.44431" fill="#EBEBEB"/>
<ellipse id="Ellipse 40_7" cx="180.71" cy="102.371" rx="2.05318" ry="2.44431" fill="#EBEBEB"/>
<ellipse id="Ellipse 41_7" cx="193.43" cy="102.371" rx="2.05318" ry="2.44431" fill="#EBEBEB"/>
<ellipse id="Ellipse 42_7" cx="206.149" cy="102.371" rx="2.05318" ry="2.44431" fill="#EBEBEB"/>
<ellipse id="Ellipse 43_7" cx="218.868" cy="102.371" rx="2.05318" ry="2.44431" fill="#EBEBEB"/>
<ellipse id="Ellipse 44_7" cx="231.587" cy="102.371" rx="2.05318" ry="2.44431" fill="#EBEBEB"/>
<ellipse id="Ellipse 45_7" cx="244.306" cy="102.371" rx="2.05318" ry="2.44431" fill="#EBEBEB"/>
</g>
<g id="Group 45">
<ellipse id="Ellipse 26_8" cx="2.6429" cy="119.015" rx="2.05318" ry="2.44431" fill="#EBEBEB"/>
<ellipse id="Ellipse 27_8" cx="15.362" cy="119.015" rx="2.05318" ry="2.44431" fill="#EBEBEB"/>
<ellipse id="Ellipse 28_8" cx="28.0811" cy="119.015" rx="2.05318" ry="2.44431" fill="#EBEBEB"/>
<ellipse id="Ellipse 29_8" cx="40.8003" cy="119.015" rx="2.05318" ry="2.44431" fill="#EBEBEB"/>
<ellipse id="Ellipse 30_8" cx="53.5194" cy="119.015" rx="2.05318" ry="2.44431" fill="#EBEBEB"/>
<ellipse id="Ellipse 31_8" cx="66.2385" cy="119.015" rx="2.05318" ry="2.44431" fill="#EBEBEB"/>
<ellipse id="Ellipse 32_8" cx="78.9576" cy="119.015" rx="2.05318" ry="2.44431" fill="#EBEBEB"/>
<ellipse id="Ellipse 33_8" cx="91.6767" cy="119.015" rx="2.05318" ry="2.44431" fill="#EBEBEB"/>
<ellipse id="Ellipse 34_8" cx="104.396" cy="119.015" rx="2.05318" ry="2.44431" fill="#EBEBEB"/>
<ellipse id="Ellipse 35_8" cx="117.115" cy="119.015" rx="2.05318" ry="2.44431" fill="#EBEBEB"/>
<ellipse id="Ellipse 36_8" cx="129.834" cy="119.015" rx="2.05318" ry="2.44431" fill="#EBEBEB"/>
<ellipse id="Ellipse 37_8" cx="142.553" cy="119.015" rx="2.05318" ry="2.44431" fill="#EBEBEB"/>
<ellipse id="Ellipse 38_8" cx="155.272" cy="119.015" rx="2.05318" ry="2.44431" fill="#EBEBEB"/>
<ellipse id="Ellipse 39_8" cx="167.991" cy="119.015" rx="2.05318" ry="2.44431" fill="#EBEBEB"/>
<ellipse id="Ellipse 40_8" cx="180.71" cy="119.015" rx="2.05318" ry="2.44431" fill="#EBEBEB"/>
<ellipse id="Ellipse 41_8" cx="193.43" cy="119.015" rx="2.05318" ry="2.44431" fill="#EBEBEB"/>
<ellipse id="Ellipse 42_8" cx="206.149" cy="119.015" rx="2.05318" ry="2.44431" fill="#EBEBEB"/>
<ellipse id="Ellipse 43_8" cx="218.868" cy="119.015" rx="2.05318" ry="2.44431" fill="#EBEBEB"/>
<ellipse id="Ellipse 44_8" cx="231.587" cy="119.015" rx="2.05318" ry="2.44431" fill="#EBEBEB"/>
<ellipse id="Ellipse 45_8" cx="244.306" cy="119.015" rx="2.05318" ry="2.44431" fill="#EBEBEB"/>
</g>
<g id="Group 46">
<ellipse id="Ellipse 26_9" cx="2.6429" cy="135.659" rx="2.05318" ry="2.44431" fill="#EBEBEB"/>
<ellipse id="Ellipse 27_9" cx="15.362" cy="135.659" rx="2.05318" ry="2.44431" fill="#EBEBEB"/>
<ellipse id="Ellipse 28_9" cx="28.0811" cy="135.659" rx="2.05318" ry="2.44431" fill="#EBEBEB"/>
<ellipse id="Ellipse 29_9" cx="40.8003" cy="135.659" rx="2.05318" ry="2.44431" fill="#EBEBEB"/>
<ellipse id="Ellipse 30_9" cx="53.5194" cy="135.659" rx="2.05318" ry="2.44431" fill="#EBEBEB"/>
<ellipse id="Ellipse 31_9" cx="66.2385" cy="135.659" rx="2.05318" ry="2.44431" fill="#EBEBEB"/>
<ellipse id="Ellipse 32_9" cx="78.9576" cy="135.659" rx="2.05318" ry="2.44431" fill="#EBEBEB"/>
<ellipse id="Ellipse 33_9" cx="91.6767" cy="135.659" rx="2.05318" ry="2.44431" fill="#EBEBEB"/>
<ellipse id="Ellipse 34_9" cx="104.396" cy="135.659" rx="2.05318" ry="2.44431" fill="#EBEBEB"/>
<ellipse id="Ellipse 35_9" cx="117.115" cy="135.659" rx="2.05318" ry="2.44431" fill="#EBEBEB"/>
<ellipse id="Ellipse 36_9" cx="129.834" cy="135.659" rx="2.05318" ry="2.44431" fill="#EBEBEB"/>
<ellipse id="Ellipse 37_9" cx="142.553" cy="135.659" rx="2.05318" ry="2.44431" fill="#EBEBEB"/>
<ellipse id="Ellipse 38_9" cx="155.272" cy="135.659" rx="2.05318" ry="2.44431" fill="#EBEBEB"/>
<ellipse id="Ellipse 39_9" cx="167.991" cy="135.659" rx="2.05318" ry="2.44431" fill="#EBEBEB"/>
<ellipse id="Ellipse 40_9" cx="180.71" cy="135.659" rx="2.05318" ry="2.44431" fill="#EBEBEB"/>
<ellipse id="Ellipse 41_9" cx="193.43" cy="135.659" rx="2.05318" ry="2.44431" fill="#EBEBEB"/>
<ellipse id="Ellipse 42_9" cx="206.149" cy="135.659" rx="2.05318" ry="2.44431" fill="#EBEBEB"/>
<ellipse id="Ellipse 43_9" cx="218.868" cy="135.659" rx="2.05318" ry="2.44431" fill="#EBEBEB"/>
<ellipse id="Ellipse 44_9" cx="231.587" cy="135.659" rx="2.05318" ry="2.44431" fill="#EBEBEB"/>
<ellipse id="Ellipse 45_9" cx="244.306" cy="135.659" rx="2.05318" ry="2.44431" fill="#EBEBEB"/>
</g>
<g id="Group 47">
<ellipse id="Ellipse 26_10" cx="2.6429" cy="152.303" rx="2.05318" ry="2.44431" fill="#EBEBEB"/>
<ellipse id="Ellipse 27_10" cx="15.362" cy="152.303" rx="2.05318" ry="2.44431" fill="#EBEBEB"/>
<ellipse id="Ellipse 28_10" cx="28.0811" cy="152.303" rx="2.05318" ry="2.44431" fill="#EBEBEB"/>
<ellipse id="Ellipse 29_10" cx="40.8003" cy="152.303" rx="2.05318" ry="2.44431" fill="#EBEBEB"/>
<ellipse id="Ellipse 30_10" cx="53.5194" cy="152.303" rx="2.05318" ry="2.44431" fill="#EBEBEB"/>
<ellipse id="Ellipse 31_10" cx="66.2385" cy="152.303" rx="2.05318" ry="2.44431" fill="#EBEBEB"/>
<ellipse id="Ellipse 32_10" cx="78.9576" cy="152.303" rx="2.05318" ry="2.44431" fill="#EBEBEB"/>
<ellipse id="Ellipse 33_10" cx="91.6767" cy="152.303" rx="2.05318" ry="2.44431" fill="#EBEBEB"/>
<ellipse id="Ellipse 34_10" cx="104.396" cy="152.303" rx="2.05318" ry="2.44431" fill="#EBEBEB"/>
<ellipse id="Ellipse 35_10" cx="117.115" cy="152.303" rx="2.05318" ry="2.44431" fill="#EBEBEB"/>
<ellipse id="Ellipse 36_10" cx="129.834" cy="152.303" rx="2.05318" ry="2.44431" fill="#EBEBEB"/>
<ellipse id="Ellipse 37_10" cx="142.553" cy="152.303" rx="2.05318" ry="2.44431" fill="#EBEBEB"/>
<ellipse id="Ellipse 38_10" cx="155.272" cy="152.303" rx="2.05318" ry="2.44431" fill="#EBEBEB"/>
<ellipse id="Ellipse 39_10" cx="167.991" cy="152.303" rx="2.05318" ry="2.44431" fill="#EBEBEB"/>
<ellipse id="Ellipse 40_10" cx="180.71" cy="152.303" rx="2.05318" ry="2.44431" fill="#EBEBEB"/>
<ellipse id="Ellipse 41_10" cx="193.43" cy="152.303" rx="2.05318" ry="2.44431" fill="#EBEBEB"/>
<ellipse id="Ellipse 42_10" cx="206.149" cy="152.303" rx="2.05318" ry="2.44431" fill="#EBEBEB"/>
<ellipse id="Ellipse 43_10" cx="218.868" cy="152.303" rx="2.05318" ry="2.44431" fill="#EBEBEB"/>
<ellipse id="Ellipse 44_10" cx="231.587" cy="152.303" rx="2.05318" ry="2.44431" fill="#EBEBEB"/>
<ellipse id="Ellipse 45_10" cx="244.306" cy="152.303" rx="2.05318" ry="2.44431" fill="#EBEBEB"/>
</g>
<g id="Group 48">
<ellipse id="Ellipse 26_11" cx="2.6429" cy="168.947" rx="2.05318" ry="2.44431" fill="#EBEBEB"/>
<ellipse id="Ellipse 27_11" cx="15.362" cy="168.947" rx="2.05318" ry="2.44431" fill="#EBEBEB"/>
<ellipse id="Ellipse 28_11" cx="28.0811" cy="168.947" rx="2.05318" ry="2.44431" fill="#EBEBEB"/>
<ellipse id="Ellipse 29_11" cx="40.8003" cy="168.947" rx="2.05318" ry="2.44431" fill="#EBEBEB"/>
<ellipse id="Ellipse 30_11" cx="53.5194" cy="168.947" rx="2.05318" ry="2.44431" fill="#EBEBEB"/>
<ellipse id="Ellipse 31_11" cx="66.2385" cy="168.947" rx="2.05318" ry="2.44431" fill="#EBEBEB"/>
<ellipse id="Ellipse 32_11" cx="78.9576" cy="168.947" rx="2.05318" ry="2.44431" fill="#EBEBEB"/>
<ellipse id="Ellipse 33_11" cx="91.6767" cy="168.947" rx="2.05318" ry="2.44431" fill="#EBEBEB"/>
<ellipse id="Ellipse 34_11" cx="104.396" cy="168.947" rx="2.05318" ry="2.44431" fill="#EBEBEB"/>
<ellipse id="Ellipse 35_11" cx="117.115" cy="168.947" rx="2.05318" ry="2.44431" fill="#EBEBEB"/>
<ellipse id="Ellipse 36_11" cx="129.834" cy="168.947" rx="2.05318" ry="2.44431" fill="#EBEBEB"/>
<ellipse id="Ellipse 37_11" cx="142.553" cy="168.947" rx="2.05318" ry="2.44431" fill="#EBEBEB"/>
<ellipse id="Ellipse 38_11" cx="155.272" cy="168.947" rx="2.05318" ry="2.44431" fill="#EBEBEB"/>
<ellipse id="Ellipse 39_11" cx="167.991" cy="168.947" rx="2.05318" ry="2.44431" fill="#EBEBEB"/>
<ellipse id="Ellipse 40_11" cx="180.71" cy="168.947" rx="2.05318" ry="2.44431" fill="#EBEBEB"/>
<ellipse id="Ellipse 41_11" cx="193.43" cy="168.947" rx="2.05318" ry="2.44431" fill="#EBEBEB"/>
<ellipse id="Ellipse 42_11" cx="206.149" cy="168.947" rx="2.05318" ry="2.44431" fill="#EBEBEB"/>
<ellipse id="Ellipse 43_11" cx="218.868" cy="168.947" rx="2.05318" ry="2.44431" fill="#EBEBEB"/>
<ellipse id="Ellipse 44_11" cx="231.587" cy="168.947" rx="2.05318" ry="2.44431" fill="#EBEBEB"/>
<ellipse id="Ellipse 45_11" cx="244.306" cy="168.947" rx="2.05318" ry="2.44431" fill="#EBEBEB"/>
</g>
<g id="Group 49">
<ellipse id="Ellipse 26_12" cx="2.6429" cy="185.59" rx="2.05318" ry="2.44431" fill="#EBEBEB"/>
<ellipse id="Ellipse 27_12" cx="15.362" cy="185.59" rx="2.05318" ry="2.44431" fill="#EBEBEB"/>
<ellipse id="Ellipse 28_12" cx="28.0811" cy="185.59" rx="2.05318" ry="2.44431" fill="#EBEBEB"/>
<ellipse id="Ellipse 29_12" cx="40.8003" cy="185.59" rx="2.05318" ry="2.44431" fill="#EBEBEB"/>
<ellipse id="Ellipse 30_12" cx="53.5194" cy="185.59" rx="2.05318" ry="2.44431" fill="#EBEBEB"/>
<ellipse id="Ellipse 31_12" cx="66.2385" cy="185.59" rx="2.05318" ry="2.44431" fill="#EBEBEB"/>
<ellipse id="Ellipse 32_12" cx="78.9576" cy="185.59" rx="2.05318" ry="2.44431" fill="#EBEBEB"/>
<ellipse id="Ellipse 33_12" cx="91.6767" cy="185.59" rx="2.05318" ry="2.44431" fill="#EBEBEB"/>
<ellipse id="Ellipse 34_12" cx="104.396" cy="185.59" rx="2.05318" ry="2.44431" fill="#EBEBEB"/>
<ellipse id="Ellipse 35_12" cx="117.115" cy="185.59" rx="2.05318" ry="2.44431" fill="#EBEBEB"/>
<ellipse id="Ellipse 36_12" cx="129.834" cy="185.59" rx="2.05318" ry="2.44431" fill="#EBEBEB"/>
<ellipse id="Ellipse 37_12" cx="142.553" cy="185.59" rx="2.05318" ry="2.44431" fill="#EBEBEB"/>
<ellipse id="Ellipse 38_12" cx="155.272" cy="185.59" rx="2.05318" ry="2.44431" fill="#EBEBEB"/>
<ellipse id="Ellipse 39_12" cx="167.991" cy="185.59" rx="2.05318" ry="2.44431" fill="#EBEBEB"/>
<ellipse id="Ellipse 40_12" cx="180.71" cy="185.59" rx="2.05318" ry="2.44431" fill="#EBEBEB"/>
<ellipse id="Ellipse 41_12" cx="193.43" cy="185.59" rx="2.05318" ry="2.44431" fill="#EBEBEB"/>
<ellipse id="Ellipse 42_12" cx="206.149" cy="185.59" rx="2.05318" ry="2.44431" fill="#EBEBEB"/>
<ellipse id="Ellipse 43_12" cx="218.868" cy="185.59" rx="2.05318" ry="2.44431" fill="#EBEBEB"/>
<ellipse id="Ellipse 44_12" cx="231.587" cy="185.59" rx="2.05318" ry="2.44431" fill="#EBEBEB"/>
<ellipse id="Ellipse 45_12" cx="244.306" cy="185.59" rx="2.05318" ry="2.44431" fill="#EBEBEB"/>
</g>
<g id="Group 50">
<ellipse id="Ellipse 26_13" cx="2.6429" cy="202.234" rx="2.05318" ry="2.44431" fill="#EBEBEB"/>
<ellipse id="Ellipse 27_13" cx="15.362" cy="202.234" rx="2.05318" ry="2.44431" fill="#EBEBEB"/>
<ellipse id="Ellipse 28_13" cx="28.0811" cy="202.234" rx="2.05318" ry="2.44431" fill="#EBEBEB"/>
<ellipse id="Ellipse 29_13" cx="40.8003" cy="202.234" rx="2.05318" ry="2.44431" fill="#EBEBEB"/>
<ellipse id="Ellipse 30_13" cx="53.5194" cy="202.234" rx="2.05318" ry="2.44431" fill="#EBEBEB"/>
<ellipse id="Ellipse 31_13" cx="66.2385" cy="202.234" rx="2.05318" ry="2.44431" fill="#EBEBEB"/>
<ellipse id="Ellipse 32_13" cx="78.9576" cy="202.234" rx="2.05318" ry="2.44431" fill="#EBEBEB"/>
<ellipse id="Ellipse 33_13" cx="91.6767" cy="202.234" rx="2.05318" ry="2.44431" fill="#EBEBEB"/>
<ellipse id="Ellipse 34_13" cx="104.396" cy="202.234" rx="2.05318" ry="2.44431" fill="#EBEBEB"/>
<ellipse id="Ellipse 35_13" cx="117.115" cy="202.234" rx="2.05318" ry="2.44431" fill="#EBEBEB"/>
<ellipse id="Ellipse 36_13" cx="129.834" cy="202.234" rx="2.05318" ry="2.44431" fill="#EBEBEB"/>
<ellipse id="Ellipse 37_13" cx="142.553" cy="202.234" rx="2.05318" ry="2.44431" fill="#EBEBEB"/>
<ellipse id="Ellipse 38_13" cx="155.272" cy="202.234" rx="2.05318" ry="2.44431" fill="#EBEBEB"/>
<ellipse id="Ellipse 39_13" cx="167.991" cy="202.234" rx="2.05318" ry="2.44431" fill="#EBEBEB"/>
<ellipse id="Ellipse 40_13" cx="180.71" cy="202.234" rx="2.05318" ry="2.44431" fill="#EBEBEB"/>
<ellipse id="Ellipse 41_13" cx="193.43" cy="202.234" rx="2.05318" ry="2.44431" fill="#EBEBEB"/>
<ellipse id="Ellipse 42_13" cx="206.149" cy="202.234" rx="2.05318" ry="2.44431" fill="#EBEBEB"/>
<ellipse id="Ellipse 43_13" cx="218.868" cy="202.234" rx="2.05318" ry="2.44431" fill="#EBEBEB"/>
<ellipse id="Ellipse 44_13" cx="231.587" cy="202.234" rx="2.05318" ry="2.44431" fill="#EBEBEB"/>
<ellipse id="Ellipse 45_13" cx="244.306" cy="202.234" rx="2.05318" ry="2.44431" fill="#EBEBEB"/>
</g>
<g id="Group 51">
<ellipse id="Ellipse 26_14" cx="2.6429" cy="218.878" rx="2.05318" ry="2.44431" fill="#EBEBEB"/>
<ellipse id="Ellipse 27_14" cx="15.362" cy="218.878" rx="2.05318" ry="2.44431" fill="#EBEBEB"/>
<ellipse id="Ellipse 28_14" cx="28.0811" cy="218.878" rx="2.05318" ry="2.44431" fill="#EBEBEB"/>
<ellipse id="Ellipse 29_14" cx="40.8003" cy="218.878" rx="2.05318" ry="2.44431" fill="#EBEBEB"/>
<ellipse id="Ellipse 30_14" cx="53.5194" cy="218.878" rx="2.05318" ry="2.44431" fill="#EBEBEB"/>
<ellipse id="Ellipse 31_14" cx="66.2385" cy="218.878" rx="2.05318" ry="2.44431" fill="#EBEBEB"/>
<ellipse id="Ellipse 32_14" cx="78.9576" cy="218.878" rx="2.05318" ry="2.44431" fill="#EBEBEB"/>
<ellipse id="Ellipse 33_14" cx="91.6767" cy="218.878" rx="2.05318" ry="2.44431" fill="#EBEBEB"/>
<ellipse id="Ellipse 34_14" cx="104.396" cy="218.878" rx="2.05318" ry="2.44431" fill="#EBEBEB"/>
<ellipse id="Ellipse 35_14" cx="117.115" cy="218.878" rx="2.05318" ry="2.44431" fill="#EBEBEB"/>
<ellipse id="Ellipse 36_14" cx="129.834" cy="218.878" rx="2.05318" ry="2.44431" fill="#EBEBEB"/>
<ellipse id="Ellipse 37_14" cx="142.553" cy="218.878" rx="2.05318" ry="2.44431" fill="#EBEBEB"/>
<ellipse id="Ellipse 38_14" cx="155.272" cy="218.878" rx="2.05318" ry="2.44431" fill="#EBEBEB"/>
<ellipse id="Ellipse 39_14" cx="167.991" cy="218.878" rx="2.05318" ry="2.44431" fill="#EBEBEB"/>
<ellipse id="Ellipse 40_14" cx="180.71" cy="218.878" rx="2.05318" ry="2.44431" fill="#EBEBEB"/>
<ellipse id="Ellipse 41_14" cx="193.43" cy="218.878" rx="2.05318" ry="2.44431" fill="#EBEBEB"/>
<ellipse id="Ellipse 42_14" cx="206.149" cy="218.878" rx="2.05318" ry="2.44431" fill="#EBEBEB"/>
<ellipse id="Ellipse 43_14" cx="218.868" cy="218.878" rx="2.05318" ry="2.44431" fill="#EBEBEB"/>
<ellipse id="Ellipse 44_14" cx="231.587" cy="218.878" rx="2.05318" ry="2.44431" fill="#EBEBEB"/>
<ellipse id="Ellipse 45_14" cx="244.306" cy="218.878" rx="2.05318" ry="2.44431" fill="#EBEBEB"/>
</g>
<g id="Group 52">
<ellipse id="Ellipse 26_15" cx="2.6429" cy="235.522" rx="2.05318" ry="2.44431" fill="#EBEBEB"/>
<ellipse id="Ellipse 27_15" cx="15.362" cy="235.522" rx="2.05318" ry="2.44431" fill="#EBEBEB"/>
<ellipse id="Ellipse 28_15" cx="28.0811" cy="235.522" rx="2.05318" ry="2.44431" fill="#EBEBEB"/>
<ellipse id="Ellipse 29_15" cx="40.8003" cy="235.522" rx="2.05318" ry="2.44431" fill="#EBEBEB"/>
<ellipse id="Ellipse 30_15" cx="53.5194" cy="235.522" rx="2.05318" ry="2.44431" fill="#EBEBEB"/>
<ellipse id="Ellipse 31_15" cx="66.2385" cy="235.522" rx="2.05318" ry="2.44431" fill="#EBEBEB"/>
<ellipse id="Ellipse 32_15" cx="78.9576" cy="235.522" rx="2.05318" ry="2.44431" fill="#EBEBEB"/>
<ellipse id="Ellipse 33_15" cx="91.6767" cy="235.522" rx="2.05318" ry="2.44431" fill="#EBEBEB"/>
<ellipse id="Ellipse 34_15" cx="104.396" cy="235.522" rx="2.05318" ry="2.44431" fill="#EBEBEB"/>
<ellipse id="Ellipse 35_15" cx="117.115" cy="235.522" rx="2.05318" ry="2.44431" fill="#EBEBEB"/>
<ellipse id="Ellipse 36_15" cx="129.834" cy="235.522" rx="2.05318" ry="2.44431" fill="#EBEBEB"/>
<ellipse id="Ellipse 37_15" cx="142.553" cy="235.522" rx="2.05318" ry="2.44431" fill="#EBEBEB"/>
<ellipse id="Ellipse 38_15" cx="155.272" cy="235.522" rx="2.05318" ry="2.44431" fill="#EBEBEB"/>
<ellipse id="Ellipse 39_15" cx="167.991" cy="235.522" rx="2.05318" ry="2.44431" fill="#EBEBEB"/>
<ellipse id="Ellipse 40_15" cx="180.71" cy="235.522" rx="2.05318" ry="2.44431" fill="#EBEBEB"/>
<ellipse id="Ellipse 41_15" cx="193.43" cy="235.522" rx="2.05318" ry="2.44431" fill="#EBEBEB"/>
<ellipse id="Ellipse 42_15" cx="206.149" cy="235.522" rx="2.05318" ry="2.44431" fill="#EBEBEB"/>
<ellipse id="Ellipse 43_15" cx="218.868" cy="235.522" rx="2.05318" ry="2.44431" fill="#EBEBEB"/>
<ellipse id="Ellipse 44_15" cx="231.587" cy="235.522" rx="2.05318" ry="2.44431" fill="#EBEBEB"/>
<ellipse id="Ellipse 45_15" cx="244.306" cy="235.522" rx="2.05318" ry="2.44431" fill="#EBEBEB"/>
</g>
<g id="Group 53">
<ellipse id="Ellipse 26_16" cx="2.6429" cy="252.166" rx="2.05318" ry="2.44431" fill="#EBEBEB"/>
<ellipse id="Ellipse 27_16" cx="15.362" cy="252.166" rx="2.05318" ry="2.44431" fill="#EBEBEB"/>
<ellipse id="Ellipse 28_16" cx="28.0811" cy="252.166" rx="2.05318" ry="2.44431" fill="#EBEBEB"/>
<ellipse id="Ellipse 29_16" cx="40.8003" cy="252.166" rx="2.05318" ry="2.44431" fill="#EBEBEB"/>
<ellipse id="Ellipse 30_16" cx="53.5194" cy="252.166" rx="2.05318" ry="2.44431" fill="#EBEBEB"/>
<ellipse id="Ellipse 31_16" cx="66.2385" cy="252.166" rx="2.05318" ry="2.44431" fill="#EBEBEB"/>
<ellipse id="Ellipse 32_16" cx="78.9576" cy="252.166" rx="2.05318" ry="2.44431" fill="#EBEBEB"/>
<ellipse id="Ellipse 33_16" cx="91.6767" cy="252.166" rx="2.05318" ry="2.44431" fill="#EBEBEB"/>
<ellipse id="Ellipse 34_16" cx="104.396" cy="252.166" rx="2.05318" ry="2.44431" fill="#EBEBEB"/>
<ellipse id="Ellipse 35_16" cx="117.115" cy="252.166" rx="2.05318" ry="2.44431" fill="#EBEBEB"/>
<ellipse id="Ellipse 36_16" cx="129.834" cy="252.166" rx="2.05318" ry="2.44431" fill="#EBEBEB"/>
<ellipse id="Ellipse 37_16" cx="142.553" cy="252.166" rx="2.05318" ry="2.44431" fill="#EBEBEB"/>
<ellipse id="Ellipse 38_16" cx="155.272" cy="252.166" rx="2.05318" ry="2.44431" fill="#EBEBEB"/>
<ellipse id="Ellipse 39_16" cx="167.991" cy="252.166" rx="2.05318" ry="2.44431" fill="#EBEBEB"/>
<ellipse id="Ellipse 40_16" cx="180.71" cy="252.166" rx="2.05318" ry="2.44431" fill="#EBEBEB"/>
<ellipse id="Ellipse 41_16" cx="193.43" cy="252.166" rx="2.05318" ry="2.44431" fill="#EBEBEB"/>
<ellipse id="Ellipse 42_16" cx="206.149" cy="252.166" rx="2.05318" ry="2.44431" fill="#EBEBEB"/>
<ellipse id="Ellipse 43_16" cx="218.868" cy="252.166" rx="2.05318" ry="2.44431" fill="#EBEBEB"/>
<ellipse id="Ellipse 44_16" cx="231.587" cy="252.166" rx="2.05318" ry="2.44431" fill="#EBEBEB"/>
<ellipse id="Ellipse 45_16" cx="244.306" cy="252.166" rx="2.05318" ry="2.44431" fill="#EBEBEB"/>
</g>
</g>
</svg>
