<svg width="214" height="154" viewBox="0 0 214 154" fill="none" xmlns="http://www.w3.org/2000/svg">
<g id="Group 59">
<g id="Group 38">
<circle id="Ellipse 26" cx="2.76921" cy="1.77568" r="1.77568" fill="#EBEBEB"/>
<circle id="Ellipse 27" cx="13.7692" cy="1.77568" r="1.77568" fill="#EBEBEB"/>
<circle id="Ellipse 28" cx="24.7692" cy="1.77568" r="1.77568" fill="#EBEBEB"/>
<circle id="Ellipse 29" cx="71.7692" cy="1.77568" r="1.77568" fill="#EBEBEB"/>
<circle id="Ellipse 30" cx="82.7692" cy="1.77568" r="1.77568" fill="#EBEBEB"/>
<circle id="Ellipse 31" cx="93.7692" cy="1.77568" r="1.77568" fill="#EBEBEB"/>
<circle id="Ellipse 32" cx="104.769" cy="1.77568" r="1.77568" fill="#EBEBEB"/>
<circle id="Ellipse 33" cx="79.7692" cy="1.77568" r="1.77568" fill="#EBEBEB"/>
<circle id="Ellipse 34" cx="90.7692" cy="1.77568" r="1.77568" fill="#EBEBEB"/>
<circle id="Ellipse 35" cx="101.769" cy="1.77568" r="1.77568" fill="#EBEBEB"/>
<circle id="Ellipse 36" cx="112.769" cy="1.77568" r="1.77568" fill="#EBEBEB"/>
<circle id="Ellipse 37" cx="123.769" cy="1.77568" r="1.77568" fill="#EBEBEB"/>
<circle id="Ellipse 38" cx="134.769" cy="1.77568" r="1.77568" fill="#EBEBEB"/>
<circle id="Ellipse 39" cx="145.769" cy="1.77568" r="1.77568" fill="#EBEBEB"/>
<circle id="Ellipse 40" cx="156.769" cy="1.77568" r="1.77568" fill="#EBEBEB"/>
<circle id="Ellipse 41" cx="167.769" cy="1.77568" r="1.77568" fill="#EBEBEB"/>
<circle id="Ellipse 42" cx="178.769" cy="1.77568" r="1.77568" fill="#EBEBEB"/>
<circle id="Ellipse 43" cx="189.769" cy="1.77568" r="1.77568" fill="#EBEBEB"/>
<circle id="Ellipse 44" cx="200.769" cy="1.77568" r="1.77568" fill="#EBEBEB"/>
<circle id="Ellipse 45" cx="211.769" cy="1.77568" r="1.77568" fill="#EBEBEB"/>
</g>
<g id="Group 39">
<circle id="Ellipse 26_2" cx="2.76921" cy="11.7757" r="1.77568" fill="#EBEBEB"/>
<circle id="Ellipse 27_2" cx="13.7692" cy="11.7757" r="1.77568" fill="#EBEBEB"/>
<circle id="Ellipse 28_2" cx="24.7692" cy="11.7757" r="1.77568" fill="#EBEBEB"/>
<circle id="Ellipse 29_2" cx="71.7692" cy="11.7757" r="1.77568" fill="#EBEBEB"/>
<circle id="Ellipse 30_2" cx="82.7692" cy="11.7757" r="1.77568" fill="#EBEBEB"/>
<circle id="Ellipse 31_2" cx="93.7692" cy="11.7757" r="1.77568" fill="#EBEBEB"/>
<circle id="Ellipse 32_2" cx="104.769" cy="11.7757" r="1.77568" fill="#EBEBEB"/>
<circle id="Ellipse 33_2" cx="79.7692" cy="11.7757" r="1.77568" fill="#EBEBEB"/>
<circle id="Ellipse 34_2" cx="90.7692" cy="11.7757" r="1.77568" fill="#EBEBEB"/>
<circle id="Ellipse 35_2" cx="101.769" cy="11.7757" r="1.77568" fill="#EBEBEB"/>
<circle id="Ellipse 36_2" cx="112.769" cy="11.7757" r="1.77568" fill="#EBEBEB"/>
<circle id="Ellipse 37_2" cx="123.769" cy="11.7757" r="1.77568" fill="#EBEBEB"/>
<circle id="Ellipse 38_2" cx="134.769" cy="11.7757" r="1.77568" fill="#EBEBEB"/>
<circle id="Ellipse 39_2" cx="145.769" cy="11.7757" r="1.77568" fill="#EBEBEB"/>
<circle id="Ellipse 40_2" cx="156.769" cy="11.7757" r="1.77568" fill="#EBEBEB"/>
<circle id="Ellipse 41_2" cx="167.769" cy="11.7757" r="1.77568" fill="#EBEBEB"/>
<circle id="Ellipse 42_2" cx="178.769" cy="11.7757" r="1.77568" fill="#EBEBEB"/>
<circle id="Ellipse 43_2" cx="189.769" cy="11.7757" r="1.77568" fill="#EBEBEB"/>
<circle id="Ellipse 44_2" cx="200.769" cy="11.7757" r="1.77568" fill="#EBEBEB"/>
<circle id="Ellipse 45_2" cx="211.769" cy="11.7757" r="1.77568" fill="#EBEBEB"/>
</g>
<g id="Group 40">
<circle id="Ellipse 26_3" cx="2.76921" cy="21.7757" r="1.77568" fill="#EBEBEB"/>
<circle id="Ellipse 27_3" cx="13.7692" cy="21.7757" r="1.77568" fill="#EBEBEB"/>
<circle id="Ellipse 28_3" cx="24.7692" cy="21.7757" r="1.77568" fill="#EBEBEB"/>
<circle id="Ellipse 29_3" cx="71.7692" cy="21.7757" r="1.77568" fill="#EBEBEB"/>
<circle id="Ellipse 30_3" cx="82.7692" cy="21.7757" r="1.77568" fill="#EBEBEB"/>
<circle id="Ellipse 31_3" cx="93.7692" cy="21.7757" r="1.77568" fill="#EBEBEB"/>
<circle id="Ellipse 32_3" cx="104.769" cy="21.7757" r="1.77568" fill="#EBEBEB"/>
<circle id="Ellipse 33_3" cx="79.7692" cy="21.7757" r="1.77568" fill="#EBEBEB"/>
<circle id="Ellipse 34_3" cx="90.7692" cy="21.7757" r="1.77568" fill="#EBEBEB"/>
<circle id="Ellipse 35_3" cx="101.769" cy="21.7757" r="1.77568" fill="#EBEBEB"/>
<circle id="Ellipse 36_3" cx="112.769" cy="21.7757" r="1.77568" fill="#EBEBEB"/>
<circle id="Ellipse 37_3" cx="123.769" cy="21.7757" r="1.77568" fill="#EBEBEB"/>
<circle id="Ellipse 38_3" cx="134.769" cy="21.7757" r="1.77568" fill="#EBEBEB"/>
<circle id="Ellipse 39_3" cx="145.769" cy="21.7757" r="1.77568" fill="#EBEBEB"/>
<circle id="Ellipse 40_3" cx="156.769" cy="21.7757" r="1.77568" fill="#EBEBEB"/>
<circle id="Ellipse 41_3" cx="167.769" cy="21.7757" r="1.77568" fill="#EBEBEB"/>
<circle id="Ellipse 42_3" cx="178.769" cy="21.7757" r="1.77568" fill="#EBEBEB"/>
<circle id="Ellipse 43_3" cx="189.769" cy="21.7757" r="1.77568" fill="#EBEBEB"/>
<circle id="Ellipse 44_3" cx="200.769" cy="21.7757" r="1.77568" fill="#EBEBEB"/>
<circle id="Ellipse 45_3" cx="211.769" cy="21.7757" r="1.77568" fill="#EBEBEB"/>
</g>
<g id="Group 41">
<circle id="Ellipse 26_4" cx="2.76921" cy="31.7757" r="1.77568" fill="#EBEBEB"/>
<circle id="Ellipse 27_4" cx="13.7692" cy="31.7757" r="1.77568" fill="#EBEBEB"/>
<circle id="Ellipse 28_4" cx="24.7692" cy="31.7757" r="1.77568" fill="#EBEBEB"/>
<circle id="Ellipse 29_4" cx="71.7692" cy="31.7757" r="1.77568" fill="#EBEBEB"/>
<circle id="Ellipse 30_4" cx="82.7692" cy="31.7757" r="1.77568" fill="#EBEBEB"/>
<circle id="Ellipse 31_4" cx="93.7692" cy="31.7757" r="1.77568" fill="#EBEBEB"/>
<circle id="Ellipse 32_4" cx="104.769" cy="31.7757" r="1.77568" fill="#EBEBEB"/>
<circle id="Ellipse 33_4" cx="79.7692" cy="31.7757" r="1.77568" fill="#EBEBEB"/>
<circle id="Ellipse 34_4" cx="90.7692" cy="31.7757" r="1.77568" fill="#EBEBEB"/>
<circle id="Ellipse 35_4" cx="101.769" cy="31.7757" r="1.77568" fill="#EBEBEB"/>
<circle id="Ellipse 36_4" cx="112.769" cy="31.7757" r="1.77568" fill="#EBEBEB"/>
<circle id="Ellipse 37_4" cx="123.769" cy="31.7757" r="1.77568" fill="#EBEBEB"/>
<circle id="Ellipse 38_4" cx="134.769" cy="31.7757" r="1.77568" fill="#EBEBEB"/>
<circle id="Ellipse 39_4" cx="145.769" cy="31.7757" r="1.77568" fill="#EBEBEB"/>
<circle id="Ellipse 40_4" cx="156.769" cy="31.7757" r="1.77568" fill="#EBEBEB"/>
<circle id="Ellipse 41_4" cx="167.769" cy="31.7757" r="1.77568" fill="#EBEBEB"/>
<circle id="Ellipse 42_4" cx="178.769" cy="31.7757" r="1.77568" fill="#EBEBEB"/>
<circle id="Ellipse 43_4" cx="189.769" cy="31.7757" r="1.77568" fill="#EBEBEB"/>
<circle id="Ellipse 44_4" cx="200.769" cy="31.7757" r="1.77568" fill="#EBEBEB"/>
<circle id="Ellipse 45_4" cx="211.769" cy="31.7757" r="1.77568" fill="#EBEBEB"/>
</g>
<g id="Group 42">
<circle id="Ellipse 26_5" cx="2.76921" cy="41.7757" r="1.77568" fill="#EBEBEB"/>
<circle id="Ellipse 27_5" cx="13.7692" cy="41.7757" r="1.77568" fill="#EBEBEB"/>
<circle id="Ellipse 28_5" cx="24.7692" cy="41.7757" r="1.77568" fill="#EBEBEB"/>
<circle id="Ellipse 29_5" cx="71.7692" cy="41.7757" r="1.77568" fill="#EBEBEB"/>
<circle id="Ellipse 30_5" cx="82.7692" cy="41.7757" r="1.77568" fill="#EBEBEB"/>
<circle id="Ellipse 31_5" cx="93.7692" cy="41.7757" r="1.77568" fill="#EBEBEB"/>
<circle id="Ellipse 32_5" cx="104.769" cy="41.7757" r="1.77568" fill="#EBEBEB"/>
<circle id="Ellipse 33_5" cx="79.7692" cy="41.7757" r="1.77568" fill="#EBEBEB"/>
<circle id="Ellipse 34_5" cx="90.7692" cy="41.7757" r="1.77568" fill="#EBEBEB"/>
<circle id="Ellipse 35_5" cx="101.769" cy="41.7757" r="1.77568" fill="#EBEBEB"/>
<circle id="Ellipse 36_5" cx="112.769" cy="41.7757" r="1.77568" fill="#EBEBEB"/>
<circle id="Ellipse 37_5" cx="123.769" cy="41.7757" r="1.77568" fill="#EBEBEB"/>
<circle id="Ellipse 38_5" cx="134.769" cy="41.7757" r="1.77568" fill="#EBEBEB"/>
<circle id="Ellipse 39_5" cx="145.769" cy="41.7757" r="1.77568" fill="#EBEBEB"/>
<circle id="Ellipse 40_5" cx="156.769" cy="41.7757" r="1.77568" fill="#EBEBEB"/>
<circle id="Ellipse 41_5" cx="167.769" cy="41.7757" r="1.77568" fill="#EBEBEB"/>
<circle id="Ellipse 42_5" cx="178.769" cy="41.7757" r="1.77568" fill="#EBEBEB"/>
<circle id="Ellipse 43_5" cx="189.769" cy="41.7757" r="1.77568" fill="#EBEBEB"/>
<circle id="Ellipse 44_5" cx="200.769" cy="41.7757" r="1.77568" fill="#EBEBEB"/>
<circle id="Ellipse 45_5" cx="211.769" cy="41.7757" r="1.77568" fill="#EBEBEB"/>
</g>
<g id="Group 43">
<circle id="Ellipse 26_6" cx="2.76921" cy="51.7757" r="1.77568" fill="#EBEBEB"/>
<circle id="Ellipse 27_6" cx="13.7692" cy="51.7757" r="1.77568" fill="#EBEBEB"/>
<circle id="Ellipse 28_6" cx="24.7692" cy="51.7757" r="1.77568" fill="#EBEBEB"/>
<circle id="Ellipse 29_6" cx="71.7692" cy="51.7757" r="1.77568" fill="#EBEBEB"/>
<circle id="Ellipse 30_6" cx="82.7692" cy="51.7757" r="1.77568" fill="#EBEBEB"/>
<circle id="Ellipse 31_6" cx="93.7692" cy="51.7757" r="1.77568" fill="#EBEBEB"/>
<circle id="Ellipse 32_6" cx="104.769" cy="51.7757" r="1.77568" fill="#EBEBEB"/>
<circle id="Ellipse 33_6" cx="79.7692" cy="51.7757" r="1.77568" fill="#EBEBEB"/>
<circle id="Ellipse 34_6" cx="90.7692" cy="51.7757" r="1.77568" fill="#EBEBEB"/>
<circle id="Ellipse 35_6" cx="101.769" cy="51.7757" r="1.77568" fill="#EBEBEB"/>
<circle id="Ellipse 36_6" cx="112.769" cy="51.7757" r="1.77568" fill="#EBEBEB"/>
<circle id="Ellipse 37_6" cx="123.769" cy="51.7757" r="1.77568" fill="#EBEBEB"/>
<circle id="Ellipse 38_6" cx="134.769" cy="51.7757" r="1.77568" fill="#EBEBEB"/>
<circle id="Ellipse 39_6" cx="145.769" cy="51.7757" r="1.77568" fill="#EBEBEB"/>
<circle id="Ellipse 40_6" cx="156.769" cy="51.7757" r="1.77568" fill="#EBEBEB"/>
<circle id="Ellipse 41_6" cx="167.769" cy="51.7757" r="1.77568" fill="#EBEBEB"/>
<circle id="Ellipse 42_6" cx="178.769" cy="51.7757" r="1.77568" fill="#EBEBEB"/>
<circle id="Ellipse 43_6" cx="189.769" cy="51.7757" r="1.77568" fill="#EBEBEB"/>
<circle id="Ellipse 44_6" cx="200.769" cy="51.7757" r="1.77568" fill="#EBEBEB"/>
<circle id="Ellipse 45_6" cx="211.769" cy="51.7757" r="1.77568" fill="#EBEBEB"/>
</g>
<g id="Group 44">
<circle id="Ellipse 26_7" cx="2.76921" cy="61.7757" r="1.77568" fill="#EBEBEB"/>
<circle id="Ellipse 27_7" cx="13.7692" cy="61.7757" r="1.77568" fill="#EBEBEB"/>
<circle id="Ellipse 28_7" cx="24.7692" cy="61.7757" r="1.77568" fill="#EBEBEB"/>
<circle id="Ellipse 29_7" cx="71.7692" cy="61.7757" r="1.77568" fill="#EBEBEB"/>
<circle id="Ellipse 30_7" cx="82.7692" cy="61.7757" r="1.77568" fill="#EBEBEB"/>
<circle id="Ellipse 31_7" cx="93.7692" cy="61.7757" r="1.77568" fill="#EBEBEB"/>
<circle id="Ellipse 32_7" cx="104.769" cy="61.7757" r="1.77568" fill="#EBEBEB"/>
<circle id="Ellipse 33_7" cx="79.7692" cy="61.7757" r="1.77568" fill="#EBEBEB"/>
<circle id="Ellipse 34_7" cx="90.7692" cy="61.7757" r="1.77568" fill="#EBEBEB"/>
<circle id="Ellipse 35_7" cx="101.769" cy="61.7757" r="1.77568" fill="#EBEBEB"/>
<circle id="Ellipse 36_7" cx="112.769" cy="61.7757" r="1.77568" fill="#EBEBEB"/>
<circle id="Ellipse 37_7" cx="123.769" cy="61.7757" r="1.77568" fill="#EBEBEB"/>
<circle id="Ellipse 38_7" cx="134.769" cy="61.7757" r="1.77568" fill="#EBEBEB"/>
<circle id="Ellipse 39_7" cx="145.769" cy="61.7757" r="1.77568" fill="#EBEBEB"/>
<circle id="Ellipse 40_7" cx="156.769" cy="61.7757" r="1.77568" fill="#EBEBEB"/>
<circle id="Ellipse 41_7" cx="167.769" cy="61.7757" r="1.77568" fill="#EBEBEB"/>
<circle id="Ellipse 42_7" cx="178.769" cy="61.7757" r="1.77568" fill="#EBEBEB"/>
<circle id="Ellipse 43_7" cx="189.769" cy="61.7757" r="1.77568" fill="#EBEBEB"/>
<circle id="Ellipse 44_7" cx="200.769" cy="61.7757" r="1.77568" fill="#EBEBEB"/>
<circle id="Ellipse 45_7" cx="211.769" cy="61.7757" r="1.77568" fill="#EBEBEB"/>
</g>
<g id="Group 45">
<circle id="Ellipse 26_8" cx="2.76921" cy="71.7757" r="1.77568" fill="#EBEBEB"/>
<circle id="Ellipse 27_8" cx="13.7692" cy="71.7757" r="1.77568" fill="#EBEBEB"/>
<circle id="Ellipse 28_8" cx="24.7692" cy="71.7757" r="1.77568" fill="#EBEBEB"/>
<circle id="Ellipse 29_8" cx="71.7692" cy="71.7757" r="1.77568" fill="#EBEBEB"/>
<circle id="Ellipse 30_8" cx="82.7692" cy="71.7757" r="1.77568" fill="#EBEBEB"/>
<circle id="Ellipse 31_8" cx="93.7692" cy="71.7757" r="1.77568" fill="#EBEBEB"/>
<circle id="Ellipse 32_8" cx="104.769" cy="71.7757" r="1.77568" fill="#EBEBEB"/>
<circle id="Ellipse 33_8" cx="79.7692" cy="71.7757" r="1.77568" fill="#EBEBEB"/>
<circle id="Ellipse 34_8" cx="90.7692" cy="71.7757" r="1.77568" fill="#EBEBEB"/>
<circle id="Ellipse 35_8" cx="101.769" cy="71.7757" r="1.77568" fill="#EBEBEB"/>
<circle id="Ellipse 36_8" cx="112.769" cy="71.7757" r="1.77568" fill="#EBEBEB"/>
<circle id="Ellipse 37_8" cx="123.769" cy="71.7757" r="1.77568" fill="#EBEBEB"/>
<circle id="Ellipse 38_8" cx="134.769" cy="71.7757" r="1.77568" fill="#EBEBEB"/>
<circle id="Ellipse 39_8" cx="145.769" cy="71.7757" r="1.77568" fill="#EBEBEB"/>
<circle id="Ellipse 40_8" cx="156.769" cy="71.7757" r="1.77568" fill="#EBEBEB"/>
<circle id="Ellipse 41_8" cx="167.769" cy="71.7757" r="1.77568" fill="#EBEBEB"/>
<circle id="Ellipse 42_8" cx="178.769" cy="71.7757" r="1.77568" fill="#EBEBEB"/>
<circle id="Ellipse 43_8" cx="189.769" cy="71.7757" r="1.77568" fill="#EBEBEB"/>
<circle id="Ellipse 44_8" cx="200.769" cy="71.7757" r="1.77568" fill="#EBEBEB"/>
<circle id="Ellipse 45_8" cx="211.769" cy="71.7757" r="1.77568" fill="#EBEBEB"/>
</g>
<g id="Group 46">
<circle id="Ellipse 26_9" cx="2.76921" cy="81.7757" r="1.77568" fill="#EBEBEB"/>
<circle id="Ellipse 27_9" cx="13.7692" cy="81.7757" r="1.77568" fill="#EBEBEB"/>
<circle id="Ellipse 28_9" cx="24.7692" cy="81.7757" r="1.77568" fill="#EBEBEB"/>
<circle id="Ellipse 29_9" cx="71.7692" cy="81.7757" r="1.77568" fill="#EBEBEB"/>
<circle id="Ellipse 30_9" cx="82.7692" cy="81.7757" r="1.77568" fill="#EBEBEB"/>
<circle id="Ellipse 31_9" cx="93.7692" cy="81.7757" r="1.77568" fill="#EBEBEB"/>
<circle id="Ellipse 32_9" cx="104.769" cy="81.7757" r="1.77568" fill="#EBEBEB"/>
<circle id="Ellipse 33_9" cx="79.7692" cy="81.7757" r="1.77568" fill="#EBEBEB"/>
<circle id="Ellipse 34_9" cx="90.7692" cy="81.7757" r="1.77568" fill="#EBEBEB"/>
<circle id="Ellipse 35_9" cx="101.769" cy="81.7757" r="1.77568" fill="#EBEBEB"/>
<circle id="Ellipse 36_9" cx="112.769" cy="81.7757" r="1.77568" fill="#EBEBEB"/>
<circle id="Ellipse 37_9" cx="123.769" cy="81.7757" r="1.77568" fill="#EBEBEB"/>
<circle id="Ellipse 38_9" cx="134.769" cy="81.7757" r="1.77568" fill="#EBEBEB"/>
<circle id="Ellipse 39_9" cx="145.769" cy="81.7757" r="1.77568" fill="#EBEBEB"/>
<circle id="Ellipse 40_9" cx="156.769" cy="81.7757" r="1.77568" fill="#EBEBEB"/>
<circle id="Ellipse 41_9" cx="167.769" cy="81.7757" r="1.77568" fill="#EBEBEB"/>
<circle id="Ellipse 42_9" cx="178.769" cy="81.7757" r="1.77568" fill="#EBEBEB"/>
<circle id="Ellipse 43_9" cx="189.769" cy="81.7757" r="1.77568" fill="#EBEBEB"/>
<circle id="Ellipse 44_9" cx="200.769" cy="81.7757" r="1.77568" fill="#EBEBEB"/>
<circle id="Ellipse 45_9" cx="211.769" cy="81.7757" r="1.77568" fill="#EBEBEB"/>
</g>
<g id="Group 47">
<circle id="Ellipse 26_10" cx="2.76921" cy="91.7757" r="1.77568" fill="#EBEBEB"/>
<circle id="Ellipse 27_10" cx="13.7692" cy="91.7757" r="1.77568" fill="#EBEBEB"/>
<circle id="Ellipse 28_10" cx="24.7692" cy="91.7757" r="1.77568" fill="#EBEBEB"/>
<circle id="Ellipse 29_10" cx="71.7692" cy="91.7757" r="1.77568" fill="#EBEBEB"/>
<circle id="Ellipse 30_10" cx="82.7692" cy="91.7757" r="1.77568" fill="#EBEBEB"/>
<circle id="Ellipse 31_10" cx="93.7692" cy="91.7757" r="1.77568" fill="#EBEBEB"/>
<circle id="Ellipse 32_10" cx="104.769" cy="91.7757" r="1.77568" fill="#EBEBEB"/>
<circle id="Ellipse 33_10" cx="79.7692" cy="91.7757" r="1.77568" fill="#EBEBEB"/>
<circle id="Ellipse 34_10" cx="90.7692" cy="91.7757" r="1.77568" fill="#EBEBEB"/>
<circle id="Ellipse 35_10" cx="101.769" cy="91.7757" r="1.77568" fill="#EBEBEB"/>
<circle id="Ellipse 36_10" cx="112.769" cy="91.7757" r="1.77568" fill="#EBEBEB"/>
<circle id="Ellipse 37_10" cx="123.769" cy="91.7757" r="1.77568" fill="#EBEBEB"/>
<circle id="Ellipse 38_10" cx="134.769" cy="91.7757" r="1.77568" fill="#EBEBEB"/>
<circle id="Ellipse 39_10" cx="145.769" cy="91.7757" r="1.77568" fill="#EBEBEB"/>
<circle id="Ellipse 40_10" cx="156.769" cy="91.7757" r="1.77568" fill="#EBEBEB"/>
<circle id="Ellipse 41_10" cx="167.769" cy="91.7757" r="1.77568" fill="#EBEBEB"/>
<circle id="Ellipse 42_10" cx="178.769" cy="91.7757" r="1.77568" fill="#EBEBEB"/>
<circle id="Ellipse 43_10" cx="189.769" cy="91.7757" r="1.77568" fill="#EBEBEB"/>
<circle id="Ellipse 44_10" cx="200.769" cy="91.7757" r="1.77568" fill="#EBEBEB"/>
<circle id="Ellipse 45_10" cx="211.769" cy="91.7757" r="1.77568" fill="#EBEBEB"/>
</g>
<g id="Group 48">
<circle id="Ellipse 26_11" cx="2.76921" cy="101.776" r="1.77568" fill="#EBEBEB"/>
<circle id="Ellipse 27_11" cx="13.7692" cy="101.776" r="1.77568" fill="#EBEBEB"/>
<circle id="Ellipse 28_11" cx="24.7692" cy="101.776" r="1.77568" fill="#EBEBEB"/>
<circle id="Ellipse 29_11" cx="71.7692" cy="101.776" r="1.77568" fill="#EBEBEB"/>
<circle id="Ellipse 30_11" cx="82.7692" cy="101.776" r="1.77568" fill="#EBEBEB"/>
<circle id="Ellipse 31_11" cx="93.7692" cy="101.776" r="1.77568" fill="#EBEBEB"/>
<circle id="Ellipse 32_11" cx="104.769" cy="101.776" r="1.77568" fill="#EBEBEB"/>
<circle id="Ellipse 33_11" cx="79.7692" cy="101.776" r="1.77568" fill="#EBEBEB"/>
<circle id="Ellipse 34_11" cx="90.7692" cy="101.776" r="1.77568" fill="#EBEBEB"/>
<circle id="Ellipse 35_11" cx="101.769" cy="101.776" r="1.77568" fill="#EBEBEB"/>
<circle id="Ellipse 36_11" cx="112.769" cy="101.776" r="1.77568" fill="#EBEBEB"/>
<circle id="Ellipse 37_11" cx="123.769" cy="101.776" r="1.77568" fill="#EBEBEB"/>
<circle id="Ellipse 38_11" cx="134.769" cy="101.776" r="1.77568" fill="#EBEBEB"/>
<circle id="Ellipse 39_11" cx="145.769" cy="101.776" r="1.77568" fill="#EBEBEB"/>
<circle id="Ellipse 40_11" cx="156.769" cy="101.776" r="1.77568" fill="#EBEBEB"/>
<circle id="Ellipse 41_11" cx="167.769" cy="101.776" r="1.77568" fill="#EBEBEB"/>
<circle id="Ellipse 42_11" cx="178.769" cy="101.776" r="1.77568" fill="#EBEBEB"/>
<circle id="Ellipse 43_11" cx="189.769" cy="101.776" r="1.77568" fill="#EBEBEB"/>
<circle id="Ellipse 44_11" cx="200.769" cy="101.776" r="1.77568" fill="#EBEBEB"/>
<circle id="Ellipse 45_11" cx="211.769" cy="101.776" r="1.77568" fill="#EBEBEB"/>
</g>
<g id="Group 49">
<circle id="Ellipse 26_12" cx="2.76921" cy="111.776" r="1.77568" fill="#EBEBEB"/>
<circle id="Ellipse 27_12" cx="13.7692" cy="111.776" r="1.77568" fill="#EBEBEB"/>
<circle id="Ellipse 28_12" cx="24.7692" cy="111.776" r="1.77568" fill="#EBEBEB"/>
<circle id="Ellipse 29_12" cx="71.7692" cy="111.776" r="1.77568" fill="#EBEBEB"/>
<circle id="Ellipse 30_12" cx="82.7692" cy="111.776" r="1.77568" fill="#EBEBEB"/>
<circle id="Ellipse 31_12" cx="93.7692" cy="111.776" r="1.77568" fill="#EBEBEB"/>
<circle id="Ellipse 32_12" cx="104.769" cy="111.776" r="1.77568" fill="#EBEBEB"/>
<circle id="Ellipse 33_12" cx="79.7692" cy="111.776" r="1.77568" fill="#EBEBEB"/>
<circle id="Ellipse 34_12" cx="90.7692" cy="111.776" r="1.77568" fill="#EBEBEB"/>
<circle id="Ellipse 35_12" cx="101.769" cy="111.776" r="1.77568" fill="#EBEBEB"/>
<circle id="Ellipse 36_12" cx="112.769" cy="111.776" r="1.77568" fill="#EBEBEB"/>
<circle id="Ellipse 37_12" cx="123.769" cy="111.776" r="1.77568" fill="#EBEBEB"/>
<circle id="Ellipse 38_12" cx="134.769" cy="111.776" r="1.77568" fill="#EBEBEB"/>
<circle id="Ellipse 39_12" cx="145.769" cy="111.776" r="1.77568" fill="#EBEBEB"/>
<circle id="Ellipse 40_12" cx="156.769" cy="111.776" r="1.77568" fill="#EBEBEB"/>
<circle id="Ellipse 41_12" cx="167.769" cy="111.776" r="1.77568" fill="#EBEBEB"/>
<circle id="Ellipse 42_12" cx="178.769" cy="111.776" r="1.77568" fill="#EBEBEB"/>
<circle id="Ellipse 43_12" cx="189.769" cy="111.776" r="1.77568" fill="#EBEBEB"/>
<circle id="Ellipse 44_12" cx="200.769" cy="111.776" r="1.77568" fill="#EBEBEB"/>
<circle id="Ellipse 45_12" cx="211.769" cy="111.776" r="1.77568" fill="#EBEBEB"/>
</g>
<g id="Group 50">
<circle id="Ellipse 26_13" cx="2.76921" cy="121.776" r="1.77568" fill="#EBEBEB"/>
<circle id="Ellipse 27_13" cx="13.7692" cy="121.776" r="1.77568" fill="#EBEBEB"/>
<circle id="Ellipse 28_13" cx="24.7692" cy="121.776" r="1.77568" fill="#EBEBEB"/>
<circle id="Ellipse 29_13" cx="71.7692" cy="121.776" r="1.77568" fill="#EBEBEB"/>
<circle id="Ellipse 30_13" cx="82.7692" cy="121.776" r="1.77568" fill="#EBEBEB"/>
<circle id="Ellipse 31_13" cx="93.7692" cy="121.776" r="1.77568" fill="#EBEBEB"/>
<circle id="Ellipse 32_13" cx="104.769" cy="121.776" r="1.77568" fill="#EBEBEB"/>
<circle id="Ellipse 33_13" cx="79.7692" cy="121.776" r="1.77568" fill="#EBEBEB"/>
<circle id="Ellipse 34_13" cx="90.7692" cy="121.776" r="1.77568" fill="#EBEBEB"/>
<circle id="Ellipse 35_13" cx="101.769" cy="121.776" r="1.77568" fill="#EBEBEB"/>
<circle id="Ellipse 36_13" cx="112.769" cy="121.776" r="1.77568" fill="#EBEBEB"/>
<circle id="Ellipse 37_13" cx="123.769" cy="121.776" r="1.77568" fill="#EBEBEB"/>
<circle id="Ellipse 38_13" cx="134.769" cy="121.776" r="1.77568" fill="#EBEBEB"/>
<circle id="Ellipse 39_13" cx="145.769" cy="121.776" r="1.77568" fill="#EBEBEB"/>
<circle id="Ellipse 40_13" cx="156.769" cy="121.776" r="1.77568" fill="#EBEBEB"/>
<circle id="Ellipse 41_13" cx="167.769" cy="121.776" r="1.77568" fill="#EBEBEB"/>
<circle id="Ellipse 42_13" cx="178.769" cy="121.776" r="1.77568" fill="#EBEBEB"/>
<circle id="Ellipse 43_13" cx="189.769" cy="121.776" r="1.77568" fill="#EBEBEB"/>
<circle id="Ellipse 44_13" cx="200.769" cy="121.776" r="1.77568" fill="#EBEBEB"/>
<circle id="Ellipse 45_13" cx="211.769" cy="121.776" r="1.77568" fill="#EBEBEB"/>
</g>
<g id="Group 51">
<circle id="Ellipse 26_14" cx="2.76921" cy="131.776" r="1.77568" fill="#EBEBEB"/>
<circle id="Ellipse 27_14" cx="13.7692" cy="131.776" r="1.77568" fill="#EBEBEB"/>
<circle id="Ellipse 28_14" cx="24.7692" cy="131.776" r="1.77568" fill="#EBEBEB"/>
<circle id="Ellipse 29_14" cx="71.7692" cy="131.776" r="1.77568" fill="#EBEBEB"/>
<circle id="Ellipse 30_14" cx="82.7692" cy="131.776" r="1.77568" fill="#EBEBEB"/>
<circle id="Ellipse 31_14" cx="93.7692" cy="131.776" r="1.77568" fill="#EBEBEB"/>
<circle id="Ellipse 32_14" cx="104.769" cy="131.776" r="1.77568" fill="#EBEBEB"/>
<circle id="Ellipse 33_14" cx="79.7692" cy="131.776" r="1.77568" fill="#EBEBEB"/>
<circle id="Ellipse 34_14" cx="90.7692" cy="131.776" r="1.77568" fill="#EBEBEB"/>
<circle id="Ellipse 35_14" cx="101.769" cy="131.776" r="1.77568" fill="#EBEBEB"/>
<circle id="Ellipse 36_14" cx="112.769" cy="131.776" r="1.77568" fill="#EBEBEB"/>
<circle id="Ellipse 37_14" cx="123.769" cy="131.776" r="1.77568" fill="#EBEBEB"/>
<circle id="Ellipse 38_14" cx="134.769" cy="131.776" r="1.77568" fill="#EBEBEB"/>
<circle id="Ellipse 39_14" cx="145.769" cy="131.776" r="1.77568" fill="#EBEBEB"/>
<circle id="Ellipse 40_14" cx="156.769" cy="131.776" r="1.77568" fill="#EBEBEB"/>
<circle id="Ellipse 41_14" cx="167.769" cy="131.776" r="1.77568" fill="#EBEBEB"/>
<circle id="Ellipse 42_14" cx="178.769" cy="131.776" r="1.77568" fill="#EBEBEB"/>
<circle id="Ellipse 43_14" cx="189.769" cy="131.776" r="1.77568" fill="#EBEBEB"/>
<circle id="Ellipse 44_14" cx="200.769" cy="131.776" r="1.77568" fill="#EBEBEB"/>
<circle id="Ellipse 45_14" cx="211.769" cy="131.776" r="1.77568" fill="#EBEBEB"/>
</g>
<g id="Group 52">
<circle id="Ellipse 26_15" cx="2.76921" cy="141.776" r="1.77568" fill="#EBEBEB"/>
<circle id="Ellipse 27_15" cx="13.7692" cy="141.776" r="1.77568" fill="#EBEBEB"/>
<circle id="Ellipse 28_15" cx="24.7692" cy="141.776" r="1.77568" fill="#EBEBEB"/>
<circle id="Ellipse 29_15" cx="71.7692" cy="141.776" r="1.77568" fill="#EBEBEB"/>
<circle id="Ellipse 30_15" cx="82.7692" cy="141.776" r="1.77568" fill="#EBEBEB"/>
<circle id="Ellipse 31_15" cx="93.7692" cy="141.776" r="1.77568" fill="#EBEBEB"/>
<circle id="Ellipse 32_15" cx="104.769" cy="141.776" r="1.77568" fill="#EBEBEB"/>
<circle id="Ellipse 33_15" cx="79.7692" cy="141.776" r="1.77568" fill="#EBEBEB"/>
<circle id="Ellipse 34_15" cx="90.7692" cy="141.776" r="1.77568" fill="#EBEBEB"/>
<circle id="Ellipse 35_15" cx="101.769" cy="141.776" r="1.77568" fill="#EBEBEB"/>
<circle id="Ellipse 36_15" cx="112.769" cy="141.776" r="1.77568" fill="#EBEBEB"/>
<circle id="Ellipse 37_15" cx="123.769" cy="141.776" r="1.77568" fill="#EBEBEB"/>
<circle id="Ellipse 38_15" cx="134.769" cy="141.776" r="1.77568" fill="#EBEBEB"/>
<circle id="Ellipse 39_15" cx="145.769" cy="141.776" r="1.77568" fill="#EBEBEB"/>
<circle id="Ellipse 40_15" cx="156.769" cy="141.776" r="1.77568" fill="#EBEBEB"/>
<circle id="Ellipse 41_15" cx="167.769" cy="141.776" r="1.77568" fill="#EBEBEB"/>
<circle id="Ellipse 42_15" cx="178.769" cy="141.776" r="1.77568" fill="#EBEBEB"/>
<circle id="Ellipse 43_15" cx="189.769" cy="141.776" r="1.77568" fill="#EBEBEB"/>
<circle id="Ellipse 44_15" cx="200.769" cy="141.776" r="1.77568" fill="#EBEBEB"/>
<circle id="Ellipse 45_15" cx="211.769" cy="141.776" r="1.77568" fill="#EBEBEB"/>
</g>
<g id="Group 53">
<circle id="Ellipse 26_16" cx="2.76921" cy="151.776" r="1.77568" fill="#EBEBEB"/>
<circle id="Ellipse 27_16" cx="13.7692" cy="151.776" r="1.77568" fill="#EBEBEB"/>
<circle id="Ellipse 28_16" cx="24.7692" cy="151.776" r="1.77568" fill="#EBEBEB"/>
<circle id="Ellipse 29_16" cx="71.7692" cy="151.776" r="1.77568" fill="#EBEBEB"/>
<circle id="Ellipse 30_16" cx="82.7692" cy="151.776" r="1.77568" fill="#EBEBEB"/>
<circle id="Ellipse 31_16" cx="93.7692" cy="151.776" r="1.77568" fill="#EBEBEB"/>
<circle id="Ellipse 32_16" cx="104.769" cy="151.776" r="1.77568" fill="#EBEBEB"/>
<circle id="Ellipse 33_16" cx="79.7692" cy="151.776" r="1.77568" fill="#EBEBEB"/>
<circle id="Ellipse 34_16" cx="90.7692" cy="151.776" r="1.77568" fill="#EBEBEB"/>
<circle id="Ellipse 35_16" cx="101.769" cy="151.776" r="1.77568" fill="#EBEBEB"/>
<circle id="Ellipse 36_16" cx="112.769" cy="151.776" r="1.77568" fill="#EBEBEB"/>
<circle id="Ellipse 37_16" cx="123.769" cy="151.776" r="1.77568" fill="#EBEBEB"/>
<circle id="Ellipse 38_16" cx="134.769" cy="151.776" r="1.77568" fill="#EBEBEB"/>
<circle id="Ellipse 39_16" cx="145.769" cy="151.776" r="1.77568" fill="#EBEBEB"/>
<circle id="Ellipse 40_16" cx="156.769" cy="151.776" r="1.77568" fill="#EBEBEB"/>
<circle id="Ellipse 41_16" cx="167.769" cy="151.776" r="1.77568" fill="#EBEBEB"/>
<circle id="Ellipse 42_16" cx="178.769" cy="151.776" r="1.77568" fill="#EBEBEB"/>
<circle id="Ellipse 43_16" cx="189.769" cy="151.776" r="1.77568" fill="#EBEBEB"/>
<circle id="Ellipse 44_16" cx="200.769" cy="151.776" r="1.77568" fill="#EBEBEB"/>
<circle id="Ellipse 45_16" cx="211.769" cy="151.776" r="1.77568" fill="#EBEBEB"/>
</g>
</g>
</svg>
