<?xml version="1.0" encoding="utf-8"?>
<!-- Uploaded to: SVG Repo, www.svgrepo.com, Generator: SVG Repo Mixer Tools -->
<svg width="800px" height="800px" viewBox="0 -4.5 41.09 41.09" xmlns="http://www.w3.org/2000/svg">
  <g id="Group_53" data-name="Group 53" transform="translate(-140 -53.91)">
    <path id="Imported-Layers_4_" d="M146,85h-4a.945.945,0,0,1-1-1V58a.945.945,0,0,1,1-1h23M150,84a.945.945,0,0,0,1,1h4l25-25s.4-2.6-1-4-4-1-4-1L150,80v4m23-27,5,5m-3-2L154,81l21-21M162,85h16a.945.945,0,0,0,1-1V69" fill="none" stroke="#444" stroke-linecap="round" stroke-linejoin="round" stroke-width="2"/>
  </g>
</svg>